<?xml version="1.0" standalone="no"?>
<!DOCTYPE svg PUBLIC "-//W3C//DTD SVG 1.1//EN" "http://www.w3.org/Graphics/SVG/1.1/DTD/svg11.dtd" >
<!--
2019-6-13: Created.
-->
<svg xmlns="http://www.w3.org/2000/svg">
<metadata>
Created by FontForge 20120731 at Thu Jun 13 09:17:14 2019
 By icons8

</metadata>
<defs>
<font id="otpp-icons-set" horiz-adv-x="512" >
  <font-face 
    font-family="otpp-icons-set"
    font-weight="500"
    font-stretch="normal"
    units-per-em="512"
    panose-1="2 0 6 3 0 0 0 0 0 0"
    ascent="448"
    descent="-64"
    bbox="-0.639648 -64.1396 512.64 449.333"
    underline-thickness="25.6"
    underline-position="-51.2"
    unicode-range="U+0020-F180"
  />
    <missing-glyph />
    <glyph glyph-name="space" unicode=" " horiz-adv-x="200" 
 />
    <glyph glyph-name="microsoft-excel" unicode="&#xf15b;" 
d="M295.68 448c2.91992 0.360352 5.87988 -0.55957 8.08008 -2.51953c2.2002 -1.96094 3.48047 -4.76074 3.44043 -7.7207v-51.2002h174.08c11.2002 0 20.4795 -9.2793 20.4795 -20.4795v-348.16c0 -11.2002 -9.2793 -20.4795 -20.4795 -20.4795h-174.08v-51.2002
c-0.0400391 -3.04004 -1.44043 -5.87988 -3.75977 -7.7998c-2.36035 -1.9209 -5.44043 -2.68066 -8.40039 -2.12012l-286.72 54.3994c-4.87988 0.919922 -8.40039 5.24023 -8.32031 10.2402v382.08c-0.0800781 5 3.44043 9.32031 8.32031 10.2402l286.72 54.3994
c0.200195 0.120117 0.44043 0.240234 0.639648 0.320312zM286.72 425.6l-266.239 -50.8799v-365.439l266.239 -50.8799v47.04c-0.279297 1.35938 -0.279297 2.7998 0 4.15918v362.561c-1.35938 2.83984 -1.35938 6.12012 0 8.95996v44.4795zM307.2 366.08v-51.2002h40.96
v-20.4795h-40.96v-51.2002h40.96v-20.4805h-40.96v-51.2002h40.96v-20.4795h-40.96v-61.4404h40.96v-20.4795h-40.96v-51.2002h174.08v348.16h-174.08zM368.64 314.88h81.9199v-20.4795h-81.9199v20.4795zM68.4805 287.36h52.4795l27.5205 -57.2803
c2.15918 -4.52051 4.0791 -10.0801 5.75977 -16.3203h0.319336c1.08008 3.7207 3.16016 9.56055 6.08008 16.96l30.4004 56.6406h48l-57.2803 -94.7207l58.8799 -96.6396h-50.8799l-33.2793 62.4004c-1.24023 2.31934 -2.52051 6.55957 -3.84082 12.7998h-0.319336
c-0.640625 -2.91992 -2.16016 -7.48047 -4.48047 -13.4404l-33.2803 -61.7598h-51.1992l61.1201 95.6797zM368.64 243.2h81.9199v-20.4805h-81.9199v20.4805zM368.64 171.52h81.9199v-20.4795h-81.9199v20.4795zM368.64 89.5996h81.9199v-20.4795h-81.9199v20.4795z" />
    <glyph glyph-name="facebook" unicode="&#xf139;" 
d="M465.083 448c25.584 0 46.917 -21.333 46.917 -46.917v-418.166c0 -25.584 -21.333 -46.917 -46.917 -46.917h-123.75v213.333h74.667l10.667 64h-85.334v49.084c0 19.166 17.084 36.25 36.25 36.25h27.75v64h-64c-64 0 -85.333 -32 -85.333 -85.334v-64h-64v-64h64
v-213.333h-209.083c-25.584 0 -46.917 21.333 -46.917 46.917v418.166c0 25.584 21.333 46.917 46.917 46.917h418.166z" />
    <glyph glyph-name="query" unicode="&#xf11b;" 
d="M256 448c25.1602 0 46.3604 -14.2002 77.7598 -30.4004c31.4004 -16.1992 73.4805 -35.4795 139.521 -49.5996l8 -1.91992v-8.32031c0 -303.92 -220.48 -417.6 -220.48 -417.6l-4.47949 -2.24023l-4.48047 2.24023s-55.96 25.8398 -111.04 90.8799
s-110.08 169.72 -110.08 326.72v8.32031l8 1.91992c66.04 14.1201 108.12 33.4004 139.521 49.5996c31.3994 16.2002 52.5996 30.4004 77.7598 30.4004zM256 427.52c-16.8398 0 -36.04 -11.5996 -68.1602 -28.1592c-30.4795 -15.7207 -73.5996 -34.6006 -136 -48.96
c1.7998 -147.761 52.7998 -245.4 104.32 -306.24c48.8398 -57.6797 93.1602 -79.7998 99.5195 -82.8799c13.1602 6.95996 200.88 110.96 204.48 389.12c-62.4004 14.3594 -105.521 33.2393 -136 48.96c-32.1201 16.5596 -51.3203 28.1592 -68.1602 28.1592zM257.92 320
c39.9199 0 66.5605 -25.5195 66.5605 -62.4004c0 -17.3994 -5.96094 -30.9199 -18.2402 -48.3193l-24.6406 -33.6006c-7.15918 -10.2393 -9.2793 -15.5596 -9.2793 -27.8398v-11.2002c0 -2.04004 -1.08008 -4.15918 -4.16016 -4.15918h-24.3203
c-1.04004 0 -3.2002 2.11914 -3.2002 4.15918v15.3604c0 14.3203 3 22.7197 11.2002 32.96l24.6406 33.5996c13.3193 17.4004 17.2793 25.7207 17.2793 39.04c0 20.4805 -14.3193 33.6006 -35.8398 33.6006c-20.4795 0 -33.6797 -12.04 -37.7598 -34.5605
c0 -2.04004 -2.12012 -3.19922 -4.16016 -3.19922l-23.3604 4.15918c-2.04004 0 -3.19922 2.12012 -3.19922 4.16016c5.11914 34.7998 30.5996 58.2402 68.4795 58.2402zM243.84 104.96h27.5205c2.04004 0 4.15918 -1.08008 4.15918 -4.16016v-31.6797
c0 -2.04004 -1.0791 -4.16016 -4.15918 -4.16016h-27.5205c-2.04004 0 -4.16016 1.08008 -4.16016 4.16016v31.6797c0 2.04004 1.08008 4.16016 4.16016 4.16016z" />
    <glyph glyph-name="circled-right" unicode="&#xf13f;" 
d="M256 427.52c129.96 0 235.52 -105.56 235.52 -235.52s-105.56 -235.52 -235.52 -235.52s-235.52 105.56 -235.52 235.52s105.56 235.52 235.52 235.52zM256 407.04c-118.88 0 -215.04 -96.1602 -215.04 -215.04s96.1602 -215.04 215.04 -215.04
s215.04 96.1602 215.04 215.04s-96.1602 215.04 -215.04 215.04zM307.2 263.68l71.6797 -71.6797l-71.6797 -71.6797v61.4395h-184.32v20.4805h184.32v61.4395z" />
    <glyph glyph-name="note" unicode="&#xf11c;" 
d="M72 400h368c13.2188 0 24 -10.7812 24 -24v-266.75c0 -10.6875 -4.15625 -20.7188 -11.7188 -28.2812l-69.25 -69.25c-7.5625 -7.5625 -17.5938 -11.7188 -28.2812 -11.7188h-282.75c-13.2188 0 -24 10.7812 -24 24v352c0 13.2188 10.7812 24 24 24zM72 384
c-4.40625 0 -8 -3.59375 -8 -8v-352c0 -4.40625 3.59375 -8 8 -8h279.656v72.3438c0 13.2188 10.7812 24 24 24h72.3438v263.656c0 4.40625 -3.59375 8 -8 8h-368zM96 368c4.40625 0 8 -3.59375 8 -8v-16c0 -4.40625 -3.59375 -8 -8 -8s-8 3.59375 -8 8v16
c0 4.40625 3.59375 8 8 8zM136 368c4.40625 0 8 -3.59375 8 -8v-16c0 -4.40625 -3.59375 -8 -8 -8s-8 3.59375 -8 8v16c0 4.40625 3.59375 8 8 8zM176 368c4.40625 0 8 -3.59375 8 -8v-16c0 -4.40625 -3.59375 -8 -8 -8s-8 3.59375 -8 8v16c0 4.40625 3.59375 8 8 8z
M216 368c4.40625 0 8 -3.59375 8 -8v-16c0 -4.40625 -3.59375 -8 -8 -8s-8 3.59375 -8 8v16c0 4.40625 3.59375 8 8 8zM256 368c4.40625 0 8 -3.59375 8 -8v-16c0 -4.40625 -3.59375 -8 -8 -8s-8 3.59375 -8 8v16c0 4.40625 3.59375 8 8 8zM296 368
c4.40625 0 8 -3.59375 8 -8v-16c0 -4.40625 -3.59375 -8 -8 -8s-8 3.59375 -8 8v16c0 4.40625 3.59375 8 8 8zM336 368c4.40625 0 8 -3.59375 8 -8v-16c0 -4.40625 -3.59375 -8 -8 -8s-8 3.59375 -8 8v16c0 4.40625 3.59375 8 8 8zM376 368c4.40625 0 8 -3.59375 8 -8v-16
c0 -4.40625 -3.59375 -8 -8 -8s-8 3.59375 -8 8v16c0 4.40625 3.59375 8 8 8zM416 368c4.40625 0 8 -3.59375 8 -8v-16c0 -4.40625 -3.59375 -8 -8 -8s-8 3.59375 -8 8v16c0 4.40625 3.59375 8 8 8zM136 224h144c4.40625 0 8 -3.59375 8 -8s-3.59375 -8 -8 -8h-144
c-4.40625 0 -8 3.59375 -8 8s3.59375 8 8 8zM312 224h48c4.40625 0 8 -3.59375 8 -8s-3.59375 -8 -8 -8h-48c-4.40625 0 -8 3.59375 -8 8s3.59375 8 8 8zM136 176h176c4.40625 0 8 -3.59375 8 -8s-3.59375 -8 -8 -8h-176c-4.40625 0 -8 3.59375 -8 8s3.59375 8 8 8z
M375.656 96.3438c-4.40625 0 -8 -3.59375 -8 -8v-68.5c1.46875 0.90625 2.84375 1.96875 4.0625 3.1875l69.25 69.25c1.25 1.25 2.3125 2.625 3.25 4.0625h-68.5625z" />
    <glyph glyph-name="file-2" unicode="&#xf161;" 
d="M71.6797 427.52h239.681l3.19922 -2.87988l122.881 -122.88l2.87988 -3.2002v-342.079h-368.641v471.039zM92.1602 407.04v-430.08h327.68v307.2h-122.88v122.88h-204.8zM317.44 392.32v-87.6807h87.6797zM153.6 222.72h204.801v-20.4795h-204.801v20.4795zM153.6 161.28
h163.841v-20.4805h-163.841v20.4805zM153.6 99.8398h204.801v-20.4795h-204.801v20.4795z" />
    <glyph glyph-name="sort-right-filled" unicode="&#xf106;" 
d="M163.84 396.8l225.28 -215.04l-225.28 -215.04v430.08z" />
    <glyph glyph-name="menu" unicode="&#xf100;" 
d="M42.667 341.333h426.666v-42.666h-426.666v42.666zM42.667 213.333h426.666v-42.666h-426.666v42.666zM42.667 85.333h426.666v-42.666h-426.666v42.666z" />
    <glyph glyph-name="ok-2" unicode="&#xf148;" 
d="M256 417.28c124.298 0 225.28 -100.982 225.28 -225.28s-100.982 -225.28 -225.28 -225.28s-225.28 100.982 -225.28 225.28s100.982 225.28 225.28 225.28zM256 396.8c-113.229 0 -204.8 -91.5703 -204.8 -204.8s91.5703 -204.8 204.8 -204.8s204.8 91.5703 204.8 204.8
s-91.5703 204.8 -204.8 204.8zM358.28 294.52l0.201172 0.00292969c5.65332 0 10.2412 -4.58887 10.2412 -10.2412c0 -1.77734 -0.825195 -4.40332 -1.84277 -5.86133l-117.88 -173.72l-92.1201 85.4795c-1.88867 1.68652 -3.42188 5.10938 -3.42188 7.64062
c0 5.65332 4.58789 10.2412 10.2412 10.2412c2.27832 0 5.45898 -1.28223 7.10059 -2.86133l74.6602 -69.2803l104.46 153.98c1.63477 2.49121 5.38086 4.56055 8.36035 4.61914z" />
    <glyph glyph-name="add" unicode="&#xf133;" 
d="M256 400c114.688 0 208 -93.3125 208 -208s-93.3125 -208 -208 -208s-208 93.3125 -208 208s93.3125 208 208 208zM256 368c-97.375 0 -176 -78.625 -176 -176s78.625 -176 176 -176s176 78.625 176 176s-78.625 176 -176 176zM240 272h32v-64h64v-32h-64v-64h-32v64h-64
v32h64v64z" />
    <glyph glyph-name="mail" unicode="&#xf14e;" 
d="M0 376.32h512v-368.641h-512v368.641zM20.4805 355.84v-327.68h471.039v327.68h-471.039zM40.96 305.48l215.04 -121.881l215.04 121.881v-24.1602l-215.04 -121.88l-215.04 121.88v24.1602z" />
    <glyph glyph-name="sent" unicode="&#xf103;" 
d="M459.52 407.04c3.68066 0.44043 7.32031 -1.12012 9.48047 -4.12012c2.2002 -2.95996 2.59961 -6.91992 1.08008 -10.2803l-176 -409.6c-1.59961 -3.63965 -5.2002 -6 -9.16016 -6.08008c-4 -0.0800781 -7.63965 2.2002 -9.40039 5.75977l-76.1592 152.641
l-152.641 76.1592c-3.55957 1.76074 -5.83984 5.40039 -5.75977 9.40039c0.0800781 3.95996 2.44043 7.56055 6.08008 9.16016l409.6 176c0.919922 0.479492 1.87988 0.799805 2.87988 0.959961zM416 366.4l-340.48 -146.561l129.28 -64.6396zM430.4 352l-211.2 -211.2
l64.6396 -129.28z" />
    <glyph glyph-name="customer" unicode="&#xf140;" 
d="M356.36 101.88c41.96 -17.3994 104.439 -44.04 104.439 -114.68v-10.2402h-409.6v10.2402c0 70.6396 62.4795 97.2803 104.439 114.68c17.4004 8.2002 38.9199 17.4004 38.9199 23.5605v46.0791c-25.5996 18.4404 -40.96 50.1602 -40.96 81.9209v61.4395
c0 56.3203 46.0801 102.4 102.4 102.4s102.4 -46.0801 102.4 -102.4v-61.4395c0 -31.7607 -15.3604 -62.4805 -40.96 -81.9209v-46.0791c0 -7.16016 21.5195 -16.4004 38.9199 -23.5605z" />
    <glyph glyph-name="user-male" unicode="&#xf120;" 
d="M253.12 427.52c48.6396 0 77.0801 -21.6396 90.2402 -41.5996c29 -2 49.4795 -18.4795 60.7998 -38.4004c12.04 -21.1992 15.6797 -45.5596 15.6797 -63.3594c0 -38.7598 -9.43945 -74.1201 -16.6396 -96.96c3 -2.60059 6 -4.16016 8.95996 -8.64062
c4.95996 -7.55957 8.83984 -18.3193 7.35938 -31.04c-4.35938 -36.8398 -28 -49.5596 -35.5195 -53.1191c-2.91992 -17.04 -11.5996 -38.2803 -25.9199 -59.8408c-15.4004 -23.1592 -36.4004 -45.3594 -62.4004 -57.9199
c-0.479492 -0.239258 -0.799805 -0.719727 -1.2793 -0.959961c-9.40039 -11.2393 -22.6807 -19.1992 -38.4004 -19.1992s-29 7.95996 -38.4004 19.1992c-0.479492 0.240234 -0.799805 0.720703 -1.2793 0.959961c-26.0801 12.5205 -47.5205 34.7607 -63.04 57.9199
c-14.4805 21.6006 -23.3203 42.7207 -26.2402 59.8408c-7.59961 3.75977 -30.5596 16.8398 -34.8799 53.4395c-1.48047 12.6797 2.12012 23.2002 7.04004 30.7197c2.91992 4.44043 5.95996 6.08008 8.95996 8.64062c-7.2002 22.5596 -16 60.8398 -16 80.6396
c0 47.7998 13.4795 88 40.96 116.16c27.4795 28.1602 68.3203 43.5195 120 43.5195zM253.12 407.04c-47.6797 0 -82.2402 -13.5205 -105.28 -37.1201s-35.2002 -58.1201 -35.2002 -102.08c0 -13.1201 10.4404 -62.1201 16.6406 -80
c1.59961 -4.59961 -0.280273 -9.67969 -4.48047 -12.1602c-1.83984 -1.16016 -5.51953 -4.08008 -8.31934 -8.31934c-2.80078 -4.24023 -4.76074 -9.56055 -3.84082 -17.2803c3.87988 -33.0801 26.8799 -40 26.8799 -40c3.64062 -1.28027 6.24023 -4.52051 6.7207 -8.32031
c1.16016 -11.2793 9.95996 -34.2793 24.3193 -55.6797c14.3604 -21.4004 34.04 -41.7998 55.6807 -51.8398c1.67969 -0.759766 3.12012 -2 4.16016 -3.52051c5.51953 -8.23926 14.8799 -13.7598 25.5996 -13.7598s20.0801 5.52051 25.5996 13.7598
c1.04004 1.52051 2.48047 2.76074 4.16016 3.52051c21.5605 10.04 41.1201 30.4395 55.3604 51.8398s22.7998 44.3604 24 55.6797c0.439453 4 3.2002 7.40039 7.04004 8.64062c0 0 22.96 6.35938 26.8799 39.3594c0.919922 7.68066 -1 12.9199 -3.83984 17.2803
s-6.87988 7.55957 -8.64062 8.63965c-4.04004 2.44043 -5.87988 7.32031 -4.47949 11.8398c6.95996 21.3203 17.2803 58.6807 17.2803 96.6406c0 14.7598 -3.60059 36.3994 -13.1201 53.1201c-9.52051 16.7197 -23.3203 28.7998 -48.3203 28.7998
c-3.75977 0.0400391 -7.2002 2.12012 -8.95996 5.43945c-7.75977 14.2002 -29.7998 35.5205 -75.8398 35.5205zM330.88 328.96h0.959961h0.640625h0.319336h0.640625h0.319336h0.640625h0.319336h0.640625c0.199219 -0.0800781 0.439453 -0.200195 0.639648 -0.320312
h0.320312c0.199219 -0.0800781 0.439453 -0.199219 0.639648 -0.319336l0.320312 -0.320312c1.08008 -0.55957 2.08008 -1.32031 2.87988 -2.24023h0.320312c0.119141 -0.200195 0.239258 -0.439453 0.319336 -0.639648l0.320312 -0.320312
c0.240234 -0.200195 0.439453 -0.399414 0.639648 -0.639648c0.120117 -0.120117 0.720703 -1.28027 0.959961 -1.60059v-0.319336c5.36035 -6.95996 36.1602 -48.6406 36.1602 -99.5205c0.0400391 -3.67969 -1.87988 -7.12012 -5.08008 -9
c-3.2002 -1.83984 -7.12012 -1.83984 -10.3193 0c-3.2002 1.87988 -5.12012 5.32031 -5.08008 9c0 31.6807 -16 61.7998 -25.9199 77.7607c-3.24023 -3.84082 -7.08008 -8 -12.1602 -12.1602c-15.1602 -12.4805 -39.6807 -24.6406 -74.5605 -24.6406
c-18.8799 0 -41.1201 -0.679688 -56.96 -6.39941c-7.91992 -2.87988 -14.0801 -6.91992 -18.2402 -12.1602c-4.15918 -5.24023 -6.71973 -11.8799 -6.71973 -22.4004c0.0400391 -3.67969 -1.87988 -7.12012 -5.08008 -9c-3.2002 -1.83984 -7.12012 -1.83984 -10.3193 0
c-3.2002 1.87988 -5.12012 5.32031 -5.08008 9c0 14.2402 4.04004 26.2002 11.1992 35.2002c7.16016 9 16.8408 14.7998 27.2002 18.5605c20.7207 7.51953 44.7998 7.67969 64 7.67969c30.1602 0 49.3604 10.2402 61.4404 20.1602
c10.7998 8.87988 14.8398 16 15.6797 17.5996c0.0800781 0.200195 0.200195 0.44043 0.320312 0.639648v0.320312c0.359375 0.679688 0.799805 1.32031 1.28027 1.91992c0.0791016 0.200195 0.199219 0.44043 0.319336 0.640625
c0.200195 0.239258 0.400391 0.439453 0.640625 0.639648c0.319336 0.240234 0.639648 0.439453 0.959961 0.639648v0.320312c0.199219 0.120117 0.439453 0.240234 0.639648 0.320312c0.719727 0.399414 1.44043 0.719727 2.24023 0.959961
c0.200195 0.120117 0.439453 0.239258 0.639648 0.319336c0.320312 0.120117 0.639648 0.240234 0.959961 0.320312zM199.68 171.52c8.48047 0 15.3604 -6.87988 15.3604 -15.3594c0 -8.48047 -6.87988 -15.3604 -15.3604 -15.3604
c-8.47949 0 -15.3594 6.87988 -15.3594 15.3604c0 8.47949 6.87988 15.3594 15.3594 15.3594zM312.32 171.52c8.47949 0 15.3594 -6.87988 15.3594 -15.3594c0 -8.48047 -6.87988 -15.3604 -15.3594 -15.3604c-8.48047 0 -15.3604 6.87988 -15.3604 15.3604
c0 8.47949 6.87988 15.3594 15.3604 15.3594z" />
    <glyph glyph-name="add-2" unicode="&#xf162;" 
d="M236.308 388.923h39.3848c11.8457 0 19.6924 -7.8457 19.6924 -19.6924v-137.846h137.846c11.8467 0 19.6924 -7.84668 19.6924 -19.6924v-39.3848c0 -11.8457 -7.8457 -19.6924 -19.6924 -19.6924h-137.846v-137.846c0 -11.8467 -7.84668 -19.6924 -19.6924 -19.6924
h-39.3848c-11.8457 0 -19.6924 7.8457 -19.6924 19.6924v137.846h-137.846c-11.8467 0 -19.6924 7.84668 -19.6924 19.6924v39.3848c0 11.8457 7.8457 19.6924 19.6924 19.6924h137.846v137.846c0 11.8467 7.84668 19.6924 19.6924 19.6924z" />
    <glyph glyph-name="flag-outline-2" unicode="&#xf178;" 
d="M133.12 448c52.7998 0 90.3994 -15.8799 126.72 -31.3604c36.0801 -15.3994 70.1201 -30.0801 119.04 -30.0801c58.9199 0 105.28 22.5205 118.08 29.4404l15.04 8.32031v-279.36l-5.12012 -2.87988c-2.32031 -1.32031 -57.2402 -32 -128 -32
c-68.3604 0 -111.92 12.5195 -150.399 23.6797c-31.7207 9.2002 -59.1602 17.2803 -95.3604 17.2803c-64.4805 0 -100.68 -12.1201 -112.64 -16.96v-187.84c0.0390625 -3.68066 -1.88086 -7.12012 -5.08008 -9c-3.2002 -1.83984 -7.12012 -1.83984 -10.3203 0
c-3.2002 1.87988 -5.12012 5.31934 -5.08008 9v471.04c-0.0800781 0.639648 -0.0800781 1.2793 0 1.91992v2.55957l1.59961 1.28027c0.280273 0.360352 0.600586 0.679688 0.959961 0.959961l0.320312 0.639648h0.320312c0.799805 0.919922 1.7998 1.68066 2.87988 2.24023
c8.87988 6 39.7598 21.1201 127.04 21.1201z" />
    <glyph glyph-name="fingerprint" unicode="&#xf11a;" 
d="M245.76 427.52c44.0801 0 81.4004 -10.1592 112.32 -26.2393c5.04004 -2.64062 6.95996 -8.87988 4.32031 -13.9199c-2.64062 -5.04004 -8.88086 -6.95996 -13.9199 -4.32031c-28.1201 14.6396 -61.7607 24 -102.721 24c-27.8398 0 -51.4795 -5.52051 -72 -14.4004
c-3.39941 -2.04004 -7.63965 -1.91992 -10.9199 0.240234c-3.28027 2.2002 -5.04004 6.08008 -4.47949 10c0.55957 3.87988 3.31934 7.16016 7.08008 8.32031c22.96 9.91992 49.7197 16.3193 80.3193 16.3193zM134.72 393.6h0.959961
c4.68066 0.280273 8.91992 -2.63965 10.3604 -7.08008c1.44043 -4.43945 -0.320312 -9.31934 -4.28027 -11.7998c-26 -18.1602 -45.3594 -41.2393 -60.1602 -61.4395c-7.39941 -10.1201 -13.7998 -19.4805 -19.1992 -27.2002
c-5.40039 -7.71973 -9.28027 -13.7598 -15.04 -18.2402c-2.80078 -2.87988 -7 -3.83984 -10.7607 -2.51953c-3.75977 1.31934 -6.39941 4.71973 -6.75977 8.71973c-0.399414 3.95996 1.60059 7.7998 5.04004 9.7998c1.32031 1 5.67969 6.64062 10.8799 14.0801
c5.2002 7.44043 11.4805 16.96 19.2002 27.5205c15.4805 21.0791 36.5596 46.1992 65.2803 66.2393c1.31934 1 2.83984 1.64062 4.47949 1.91992zM252.48 376.32h0.959961h0.959961c0.759766 0.0800781 1.47949 0.0800781 2.23926 0
c111.601 -6.52051 165.08 -73.5205 185.28 -144.641s10.3203 -145.72 -0.320312 -178.56c-1.75977 -5.40039 -7.55957 -8.32031 -12.96 -6.56055c-5.39941 1.76074 -8.31934 7.56055 -6.55957 12.96c8.83984 27.3203 18.6396 101.12 0 166.721
c-18.6396 65.5996 -62.6396 123.52 -166.72 129.6c-5.64062 -0.799805 -10.8799 3.16016 -11.6807 8.7998c-0.799805 5.64062 3.16016 10.8799 8.80078 11.6807zM391.36 375.68c2.71973 0.400391 5.47949 -0.279297 7.67969 -1.91992
c90.7998 -62.7197 101.76 -195.2 101.76 -195.2c0.520508 -5.63965 -3.63965 -10.6797 -9.28027 -11.1992c-5.63965 -0.520508 -10.6797 3.63965 -11.1992 9.2793c0 0 -12.7207 125.2 -92.8008 180.48c-3.43945 2.32031 -5.15918 6.47949 -4.31934 10.5596
s4.08008 7.24023 8.16016 8zM213.12 372.48c5.32031 0.399414 10.04 -3.36035 10.8799 -8.60059c0.839844 -5.28027 -2.51953 -10.2803 -7.67969 -11.5596c-63.2402 -12.5605 -91.8799 -54.5605 -118.08 -95.3604c-3.08008 -4.75977 -9.48047 -6.12012 -14.2402 -3.04004
s-6.12012 9.48047 -3.04004 14.2402c26.5205 41.2402 60.7598 89.96 131.521 104c0.199219 0.120117 0.439453 0.240234 0.639648 0.320312zM256 325.12c10.2002 0 20 -0.879883 29.4404 -2.56055c3.71973 -0.479492 6.87988 -3 8.23926 -6.51953
c1.32031 -3.48047 0.640625 -7.44043 -1.83984 -10.3203c-2.43945 -2.83984 -6.24023 -4.12012 -9.91992 -3.31934c-8.24023 1.47949 -16.8799 2.23926 -25.9199 2.23926c-31.3203 0 -53.1201 -9.47949 -71.04 -24c-4.40039 -3.51953 -10.8799 -2.83984 -14.4004 1.60059
c-3.51953 4.39941 -2.83984 10.8799 1.60059 14.3994c21.04 17.0801 48.2402 28.4805 83.8398 28.4805zM320 310.4c2.12012 0.199219 4.24023 -0.240234 6.08008 -1.28027c52.5996 -26.8398 83.5195 -85.2803 83.5195 -158.08c0 -21.6396 -2.59961 -44.04 -6.39941 -64.96
c-1.08008 -5.56055 -6.44043 -9.24023 -12 -8.16016c-5.56055 1.08008 -9.24023 6.44043 -8.16016 12c3.63965 20.0801 6.08008 41.2002 6.08008 61.1201c0 67.1201 -27.4805 116.96 -72.3203 139.84c-3.91992 1.91992 -6.2002 6.08008 -5.67969 10.4004
c0.479492 4.31934 3.67969 7.83984 7.91992 8.7998c0.320312 0.120117 0.639648 0.240234 0.959961 0.320312zM256 273.92c25.7197 0 46.7197 -8.71973 62.4004 -22.4004c15.6797 -13.6797 26.0801 -32.0391 32.3193 -51.1992
c1.36035 -3.56055 0.600586 -7.56055 -1.91992 -10.4404c-2.51953 -2.83984 -6.39941 -4.04004 -10.1201 -3.12012c-3.67969 0.879883 -6.55957 3.7998 -7.47949 7.48047c-5.36035 16.4795 -14.0801 31.3193 -26.2402 41.9199
c-12.1602 10.5996 -27.6797 17.2803 -48.96 17.2803c-22.5596 0 -37.5996 -6.56055 -49.9199 -16.96c-12.3203 -10.4004 -21.6797 -25.2402 -30.7197 -42.2402c-2.64062 -5.04004 -8.87988 -6.95996 -13.9199 -4.32031s-6.95996 8.87988 -4.32031 13.9199
c9.51953 17.8398 20.2002 35.1201 35.8398 48.3203s36.3604 21.7598 63.04 21.7598zM148.16 268.16h0.959961h0.959961c3.87988 -0.120117 7.36035 -2.44043 9 -5.95996c1.59961 -3.52051 1.12012 -7.64062 -1.32031 -10.6807
c-18.7998 -25.4395 -33.1602 -55.96 -52.1602 -80.6396s-44.7998 -43.7197 -81.9199 -40.3203c-5.63965 0.520508 -9.7998 5.56055 -9.2793 11.2002c0.519531 5.64062 5.55957 9.7998 11.1992 9.28027c29.9199 -2.75977 46.7207 10.3203 63.6807 32.3203
s31.7197 52.6797 52.1602 80.3193c1.51953 2.36035 3.95996 3.95996 6.71973 4.48047zM66.8799 239.36c4.04004 0.279297 7.87988 -1.87988 9.75977 -5.52051c1.87988 -3.59961 1.44043 -7.95996 -1.12012 -11.1201c-13.0791 -17.7998 -27.96 -33.2002 -48.6396 -40.3193
c-3.55957 -1.7207 -7.75977 -1.28027 -10.8799 1.19922c-3.08008 2.44043 -4.48047 6.44043 -3.59961 10.2803c0.879883 3.87988 3.91992 6.87988 7.75977 7.71973c14.7998 5.08008 26.7197 16.9199 38.7197 33.2803c1.52051 2.16016 3.7998 3.63965 6.40039 4.16016
c0.519531 0.160156 1.04004 0.240234 1.59961 0.320312zM238.72 229.12c4.95996 0.839844 9.83984 -2.08008 11.4404 -6.83984c1.55957 -4.7998 -0.560547 -10.04 -5.04004 -12.3604c-9.32031 -5.04004 -17.2402 -19.5596 -23.6797 -37.7598
c-6.44043 -18.2002 -11.7207 -39.0801 -20.4805 -56c-22.4795 -43.3203 -66.8398 -88 -129.28 -88c-3.67969 -0.0400391 -7.12012 1.87988 -9 5.08008c-1.83984 3.2002 -1.83984 7.12012 0 10.3193c1.87988 3.2002 5.32031 5.12012 9 5.08008
c52.6006 0 90.96 38.4404 111.04 77.1201c6.95996 13.4004 12.6006 33.96 19.5205 53.4404c6.91992 19.4795 15.1201 38.96 32.96 48.6396c1.08008 0.640625 2.28027 1.08008 3.51953 1.28027zM274.24 227.2c2.71973 0.399414 5.47949 -0.280273 7.67969 -1.91992
c19.5205 -13.2402 25.2803 -38.7607 25.2803 -65.2803c0 -19.96 -6.24023 -56.7197 -21.7598 -96.6396c-15.5205 -39.9199 -40.5605 -82.8008 -79.6807 -110.721c-4.67969 -3.2793 -11.1201 -2.12012 -14.3994 2.56055c-3.28027 4.67969 -2.12012 11.1201 2.55957 14.3994
c34.4004 24.5605 58.04 63.6006 72.6396 101.12c14.6006 37.5205 20.1602 73.8398 20.1602 89.2803c0 23.3203 -5.87988 41.4404 -16 48.3203c-3.67969 2.19922 -5.59961 6.43945 -4.7998 10.6797c0.759766 4.2002 4.08008 7.48047 8.32031 8.2002zM254.4 181.76
c3.08008 0.480469 6.23926 -0.439453 8.55957 -2.55957s3.52051 -5.2002 3.28027 -8.32031c0 0 -2.60059 -37.3203 -21.7598 -80.3203c-1.16016 -3.75977 -4.44043 -6.51953 -8.32031 -7.0791c-3.91992 -0.560547 -7.7998 1.19922 -10 4.47949
c-2.16016 3.28027 -2.28027 7.52051 -0.240234 10.9199c17.6396 39.6396 19.8398 73.2803 19.8398 73.2803c0.240234 4.83984 3.83984 8.83984 8.64062 9.59961zM144.64 171.52h0.959961c3.88086 0.560547 7.76074 -1.19922 9.95996 -4.47949
c2.16016 -3.24023 2.28027 -7.48047 0.280273 -10.8799c-10.3994 -19.3604 -22.7598 -38.6006 -40.96 -53.1201c-18.2002 -14.5205 -42.3604 -23.6797 -74.2402 -23.6797c-3.67969 -0.0400391 -7.12012 1.87988 -9 5.08008c-1.83984 3.19922 -1.83984 7.11914 0 10.3193
c1.87988 3.2002 5.32031 5.12012 9 5.08008c28.04 0 46.6807 7.40039 61.4404 19.2002s25.6396 28.6396 35.5195 47.04c1.40039 2.7998 4 4.7998 7.04004 5.43945zM347.2 161.6c2.91992 0.280273 5.83984 -0.719727 8 -2.75977c2.12012 -2 3.31934 -4.83984 3.2002 -7.7998
c0 -114.12 -65.9199 -197.44 -65.9199 -197.44c-3.52051 -4.51953 -10.04 -5.2793 -14.5605 -1.75977c-4.51953 3.52051 -5.28027 10.04 -1.75977 14.5605c0 0 61.7598 78.4395 61.7598 184.64c-0.120117 4.87988 3.24023 9.16016 8 10.2402
c0.400391 0.120117 0.839844 0.239258 1.28027 0.319336zM215.68 71.3604c4 0.479492 7.87988 -1.44043 9.95996 -4.91992c2.08008 -3.44043 1.91992 -7.76074 -0.359375 -11.0801c-19.4404 -29.4404 -48.2402 -58.1201 -90.2402 -76.4805
c-5.2002 -2.2002 -11.2402 0.240234 -13.4404 5.44043c-2.19922 5.19922 0.240234 11.2393 5.44043 13.4395c37.96 16.6006 63.5996 41.96 81.2803 68.7998c1.59961 2.64062 4.31934 4.40039 7.35938 4.80078zM381.76 55.3604h0.959961
c3.36035 0.239258 6.60059 -1.16016 8.7207 -3.80078c2.11914 -2.59961 2.7998 -6.0791 1.83984 -9.31934c-8.28027 -31.4004 -16.6406 -53.4404 -16.6406 -53.4404c-1.12012 -3.63965 -4.12012 -6.35938 -7.83984 -7.08008
c-3.75977 -0.719727 -7.55957 0.680664 -9.91992 3.64062c-2.39941 2.95996 -2.95996 7 -1.43945 10.4795c0 0 7.95996 21.1201 16 51.5205c0.879883 4.12012 4.15918 7.2793 8.31934 8z" />
    <glyph glyph-name="microsoft-powerpoint" unicode="&#xf159;" 
d="M295.68 448c2.91992 0.360352 5.87988 -0.55957 8.08008 -2.51953c2.2002 -1.96094 3.48047 -4.76074 3.44043 -7.7207v-51.2002h174.08c11.2002 0 20.4795 -9.2793 20.4795 -20.4795v-348.16c0 -11.2002 -9.2793 -20.4795 -20.4795 -20.4795h-174.08v-51.2002
c-0.0400391 -3.04004 -1.44043 -5.87988 -3.75977 -7.7998c-2.36035 -1.9209 -5.44043 -2.68066 -8.40039 -2.12012l-286.72 54.3994c-4.87988 0.919922 -8.40039 5.24023 -8.32031 10.2402v382.08c-0.0800781 5 3.44043 9.32031 8.32031 10.2402l286.72 54.3994
c0.200195 0.120117 0.44043 0.240234 0.639648 0.320312zM286.72 425.6l-266.239 -50.8799v-365.439l266.239 -50.8799v47.04c-0.279297 1.35938 -0.279297 2.7998 0 4.15918v363.841c-0.599609 2 -0.599609 4.0791 0 6.0791v46.0801zM307.2 366.08v-67.2002
c9.51953 3.7998 19.8799 5.75977 30.7197 5.75977h10.2402v-71.6797h71.6797v-10.2402c0 -45.1201 -36.7998 -81.9199 -81.9199 -81.9199c-10.7598 0 -21.2803 2 -30.7197 5.75977v-56.96h102.399v-20.4795h-102.399v-51.2002h174.08v348.16h-174.08zM358.4 335.36h10.2393
c45.1201 0 81.9199 -36.8008 81.9199 -81.9199v-10.2402h-92.1592v92.1602zM378.88 312.96v-49.2803h49.2803c-4.40039 25.5205 -23.7598 44.8799 -49.2803 49.2803zM83.5195 287.68h67.5205c48.2803 0 72.6396 -20.3994 72.6396 -61.1201
c0 -19.2393 -6.95996 -34.8398 -20.7998 -46.7197s-32.5195 -17.9199 -55.6797 -17.9199h-20.4805v-65.9199h-43.2002v191.68zM327.68 281.6c-6.75977 -1.19922 -13.7197 -1.87988 -19.5195 -5.11914c-0.320312 -0.240234 -0.640625 -0.44043 -0.959961 -0.640625v-106.24
c0.439453 -0.199219 0.879883 -0.399414 1.28027 -0.639648c8.75977 -4.7998 18.7197 -7.67969 29.4395 -7.67969c30.4404 0 54.5205 22.2393 59.5205 51.2002h-69.7607v69.1191zM126.72 254.4v-59.5205h16.96c22.96 0 34.5605 9.95996 34.5605 30.0801
c0 19.6797 -11.6006 29.4404 -34.5605 29.4404h-16.96z" />
    <glyph glyph-name="edit" unicode="&#xf14d;" 
d="M382.5 384.5c16.75 0 33.5 -6.5 46.5 -19.5c26 -26 26 -67 0 -93l-253 -253l-5 -1l-88 -17.5l-23.5 -5l5 23.5l17.5 88l1 5l253 253c13 13 29.75 19.5 46.5 19.5zM382.5 354c-8.0625 0 -16.1875 -3.6875 -24 -11.5l-11 -11.5l47.5 -47.5l11.5 11
c15.5625 15.5625 15.5625 32.4375 0 48c-7.8125 7.8125 -15.9375 11.5 -24 11.5zM325 308.5l-193.5 -193.5c20.5 -10.5 37 -27 47.5 -47.5l193.5 193.5zM111 89l-10.5 -52.5l52.5 10.5c-7.75 19.1875 -22.8125 34.25 -42 42z" />
    <glyph glyph-name="natural-user-interface-2" unicode="&#xf119;" 
d="M215.04 427.52c45.1201 0 81.9199 -36.7998 81.9199 -81.9199c0 -30.2393 -16.4795 -56.5596 -40.96 -70.7197v-27.2002c6.08008 3.56055 12.96 5.76074 20.4805 5.76074c15 0 28.0791 -8.36035 35.1992 -20.4805c7.16016 6.16016 16.1201 10.2402 26.2402 10.2402
c17.7998 0 32.7998 -11.5605 38.4004 -27.5205c6.59961 4.52051 14.5195 7.04004 23.04 7.04004c22.5195 0 40.96 -18.4395 40.96 -40.96v-133.12c0 -50.7598 -41.4004 -92.1592 -92.1602 -92.1592h-74.5605c-35.2793 0 -69.1191 14.0791 -94.0801 39.0391l-116.159 116.48
c-15.9199 15.9199 -15.9199 42 0 57.9199s42 15.9199 57.9199 0l52.7998 -53.1201v158.08c-24.4805 14.1602 -40.96 40.4805 -40.96 70.7197c0 45.1201 36.7998 81.9199 81.9199 81.9199zM215.04 407.04c-34.04 0 -61.4404 -27.4004 -61.4404 -61.4404
c0 -18.2793 7.88086 -34.5596 20.4805 -45.7598v45.7598c0 22.5205 18.4395 40.96 40.96 40.96c22.5195 0 40.96 -18.4395 40.96 -40.96v-45.7598c12.5996 11.2002 20.4805 27.5205 20.4805 45.7598c0 34.04 -27.4004 61.4404 -61.4404 61.4404zM215.04 366.08
c-11.4404 0 -20.4805 -9.04004 -20.4805 -20.4805v-62.7197c0.160156 -1.08008 0.160156 -2.12012 0 -3.2002v-186.239c0.0400391 -0.44043 0.0400391 -0.84082 0 -1.28027v-0.640625v-0.319336c-0.279297 -3.36035 -2.19922 -6.32031 -5.11914 -8
c-0.320312 -0.240234 -0.640625 -0.44043 -0.959961 -0.640625c-0.600586 -0.279297 -1.28027 -0.479492 -1.9209 -0.639648c-1.35938 -0.280273 -2.7998 -0.280273 -4.15918 0c-1.76074 0.320312 -3.44043 1.08008 -4.80078 2.24023
c-0.239258 0.200195 -0.439453 0.399414 -0.639648 0.639648c-0.479492 0.480469 -0.919922 1.04004 -1.28027 1.60059l-69.1201 68.7998c-8.0791 8.08008 -20.7197 8.08008 -28.7998 0s-8.08008 -20.7197 0 -28.7998l116.16 -116.48
c21.1201 -21.1201 49.7998 -32.96 79.6797 -32.96h74.5605c39.7197 0 71.6797 31.96 71.6797 71.6797v133.12c0 11.4404 -9.04004 20.4805 -20.4795 20.4805c-11.4404 0 -20.4805 -9.04004 -20.4805 -20.4805c0.0400391 -0.519531 0.0400391 -1.08008 0 -1.59961v-8.64062
c0.0400391 -3.67969 -1.87988 -7.11914 -5.08008 -9c-3.2002 -1.83984 -7.12012 -1.83984 -10.3193 0c-3.2002 1.88086 -5.12012 5.32031 -5.08008 9v9.28027v0.959961v20.4805c0 11.4395 -9.04004 20.4795 -20.4805 20.4795
c-11.4395 0 -20.4795 -9.04004 -20.4795 -20.4795v-10.2402c-0.0400391 -2.63965 -1.04004 -5.16016 -2.88086 -7.04004c-0.479492 -0.599609 -1 -1.12012 -1.59961 -1.59961c-0.200195 -0.120117 -0.44043 -0.240234 -0.639648 -0.320312
c-0.879883 -0.55957 -1.83984 -1 -2.87988 -1.28027c-1.36035 -0.279297 -2.80078 -0.279297 -4.16016 0c-1 0.160156 -1.95996 0.480469 -2.87988 0.959961c-0.320312 0.200195 -0.640625 0.400391 -0.959961 0.640625
c-0.560547 0.359375 -1.12012 0.799805 -1.60059 1.2793c-0.639648 0.760742 -1.2002 1.64062 -1.59961 2.56055c-0.480469 0.919922 -0.799805 1.87988 -0.959961 2.87988c-0.160156 0.639648 -0.280273 1.28027 -0.320312 1.91992v20.4805
c0 11.4395 -9.04004 20.4795 -20.4795 20.4795c-11.4404 0 -20.4805 -9.04004 -20.4805 -20.4795v-20.4805c-0.0400391 -2.63965 -1.04004 -5.16016 -2.87988 -7.04004c-0.480469 -0.599609 -1 -1.12012 -1.60059 -1.59961
c-0.199219 -0.120117 -0.439453 -0.240234 -0.639648 -0.320312c-0.879883 -0.55957 -1.83984 -1 -2.87988 -1.28027c-3.08008 -0.679688 -6.32031 0.0800781 -8.71973 2.08008c-2.44043 2 -3.83984 5 -3.76074 8.16016v87.04c-0.15918 1.08008 -0.15918 2.12012 0 3.2002
v63.3594c0 11.4404 -9.03906 20.4805 -20.4795 20.4805z" />
    <glyph glyph-name="synchronize" unicode="&#xf142;" 
d="M256 396.8c66.96 0 126.44 -32.2402 163.84 -82.04v61.5605c-0.0800781 5.63965 4.44043 10.2793 10.0801 10.3994c2.75977 0.0400391 5.44043 -1.04004 7.40039 -3s3.04004 -4.63965 3 -7.39941v-102.4h-102.4c-3.67969 -0.0400391 -7.12012 1.87988 -9 5.08008
c-1.83984 3.2002 -1.83984 7.12012 0 10.3203c1.87988 3.19922 5.32031 5.12012 9 5.08008h71.2402c-33.0801 49.3594 -89.2002 81.9199 -153.16 81.9199c-101.92 0 -184.32 -82.4004 -184.32 -184.32c0.0400391 -3.67969 -1.87988 -7.12012 -5.08008 -9
c-3.19922 -1.83984 -7.11914 -1.83984 -10.3193 0c-3.2002 1.87988 -5.12012 5.32031 -5.08008 9c0 113 91.7998 204.8 204.8 204.8zM450.4 202.4c2.75977 0.0400391 5.43945 -1.04004 7.39941 -3s3.04004 -4.64062 3 -7.40039c0 -113 -91.7998 -204.8 -204.8 -204.8
c-66.96 0 -126.48 32.2803 -163.84 82.0801v-61.6006c0.0400391 -3.67969 -1.87988 -7.12012 -5.08008 -9c-3.2002 -1.83984 -7.12012 -1.83984 -10.3203 0c-3.2002 1.87988 -5.12012 5.32031 -5.08008 9v102.4h10.8398c1.32031 0.240234 2.64062 0.240234 3.96094 0
h87.5996c3.67969 0.0400391 7.12012 -1.91992 9 -5.08008c1.83984 -3.2002 1.83984 -7.16016 0 -10.3604c-1.87988 -3.15918 -5.32031 -5.12012 -9 -5.04004h-71.2402c33.04 -49.3594 89.2002 -81.9199 153.16 -81.9199c101.92 0 184.32 82.4004 184.32 184.32
c-0.0800781 5.63965 4.43945 10.2803 10.0801 10.4004z" />
    <glyph glyph-name="chevron-down" unicode="&#xf14c;" 
d="M126.308 298.615l129.692 -129.692l129.692 129.692l55.6924 -55.6924l-185.385 -185.385l-185.385 185.385z" />
    <glyph glyph-name="phone-2" unicode="&#xf144;" 
d="M399.68 -33.2803h-0.479492c-76.96 2.52051 -167.12 77.1201 -229.24 139.28c-62.2002 62.1602 -136.8 152.36 -139.2 228.96c-0.879883 26.8799 65.0801 74.6797 65.7598 75.1602c17.1201 11.9199 36.1201 7.67969 43.9209 -3.12012
c5.2793 -7.32031 55.2793 -83.0801 60.7197 -91.6797c5.63965 -8.91992 4.7998 -22.2002 -2.24023 -35.5205c-3.87988 -7.39941 -16.7598 -30.04 -22.7998 -40.5996c6.51953 -9.28027 23.7598 -32.04 59.3604 -67.6406c35.6396 -35.5996 58.3594 -52.8799 67.6797 -59.3994
c10.5596 6.04004 33.2002 18.9199 40.5996 22.7998c13.1201 6.95996 26.3203 7.83984 35.3203 2.32031c9.2002 -5.64062 84.7598 -55.8799 91.7197 -60.7207c5.83984 -4.11914 9.60059 -11.1592 10.3604 -19.3594c0.719727 -8.28027 -1.83984 -17.04 -7.16016 -24.6807
c-0.44043 -0.639648 -47.6797 -65.7998 -74.3203 -65.7998z" />
    <glyph glyph-name="twitter" unicode="&#xf138;" 
d="M509.154 338.23c-18.5391 -8.23047 -38.4619 -13.7686 -59.3848 -16.3076c21.3076 12.8467 37.7686 33.0771 45.4609 57.2314c-20 -11.8467 -42.1533 -20.4619 -65.6924 -25.0771c-18.8457 20.0771 -45.6924 32.6152 -75.4609 32.6152
c-57.0771 0 -103.385 -46.3076 -103.385 -103.385c0 -8.07715 0.922852 -16 2.69238 -23.5381c-85.9229 4.30762 -162.077 45.5381 -213.077 108.076c-8.92285 -15.3076 -14 -33.0762 -14 -52.0762c0 -35.8467 18.2305 -67.4619 46 -86
c-17 0.538086 -32.9229 5.15332 -46.8457 12.9229v-1.30762c0 -50.0771 35.6152 -91.8467 82.9229 -101.385c-8.69238 -2.38477 -17.7695 -3.61523 -27.2305 -3.61523c-6.69238 0 -13.1543 0.615234 -19.4619 1.8457c13.1533 -41 51.3076 -71 96.5381 -71.7686
c-35.3076 -27.7695 -79.9229 -44.2314 -128.385 -44.2314c-8.38379 0 -16.5381 0.461914 -24.6152 1.38477c45.6924 -29.3076 100.077 -46.3848 158.462 -46.3848c190.153 0 294.153 157.539 294.153 294.077c0 4.53809 -0.0761719 9 -0.307617 13.4619
c20.2314 14.4609 37.7695 32.6924 51.6162 53.4609z" />
    <glyph glyph-name="flag-outline" unicode="&#xf177;" 
d="M133.12 448c52.8398 0 90.7197 -16.3203 126.72 -31.6797c36 -15.3604 70.1201 -29.7607 119.04 -29.7607c61.5605 0 109.68 24.8809 118.08 29.4404l15.04 8.32031v-279.36l-5.12012 -2.87988s-56.0801 -32 -128 -32c-62.2402 0 -104.16 10.4795 -140.16 20.7998
s-65.6396 20.1602 -105.6 20.1602c-40.7998 0 -70.7197 -5 -90.2402 -9.91992c-11.6797 -2.91992 -18.1201 -5.32031 -22.3994 -7.04004v-187.84c0.0390625 -3.68066 -1.88086 -7.12012 -5.08008 -9c-3.2002 -1.83984 -7.12012 -1.83984 -10.3203 0
c-3.2002 1.87988 -5.12012 5.31934 -5.08008 9v471.68c-0.0400391 0.44043 -0.0400391 0.839844 0 1.28027v2.55957l1.59961 1.28027c0.280273 0.360352 0.600586 0.679688 0.959961 0.959961l0.320312 0.639648h0.320312c0.799805 0.919922 1.7998 1.68066 2.87988 2.24023
c0.240234 0.160156 0.719727 0.160156 0.959961 0.320312c1.04004 0.679688 1.7998 1.47949 3.2002 2.24023c4.31934 2.31934 10.8398 5.2793 20.4795 8c19.2402 5.47949 50.96 10.5596 102.4 10.5596zM133.12 427.52c-50.0801 0 -79.8398 -5.15918 -96.6396 -9.91992
c-8.08008 -2.2793 -13.0801 -4.23926 -16 -5.75977v-256.96c5.43945 2.16016 6.19922 3.2002 17.5996 6.08008c21.1201 5.32031 52.5596 10.5596 95.04 10.5596c43.3203 0 75.5195 -10.6396 111.04 -20.7998c35.5195 -10.1602 74.7998 -20.1602 134.72 -20.1602
c60.9199 0 105.64 23.4404 112.64 27.2002v233.92c-19.3193 -9.2793 -57.5195 -25.5996 -112.64 -25.5996c-53 0 -91.04 16.3203 -127.04 31.6797c-36 15.3604 -70.04 29.7598 -118.72 29.7598z" />
    <glyph glyph-name="feathers" unicode="&#xf175;" 
d="M507.692 412.308c-14.3848 -14.3076 -12.3848 -34.7695 -11.6924 -52.9229c-10.1543 -6.38477 -8.8457 -10.9229 -32.6152 -19.0771c9.07715 3.07715 7.38477 2.76953 33.2305 3.69238c0.615234 -53.0771 -13.6924 -81.6924 -31.3848 -134.77
c-0.538086 -1.69238 -1.23047 -3.15332 -1.8457 -4.92285c-16.7695 -7.61523 -37.1543 -9.76953 -55.3848 -6.76953c17.1543 -9.23047 33.6924 -14 50.4619 -9.23047c-7.46191 -23.7695 -16.4619 -51 -29.5391 -69.5381c-3.30762 -4.76953 -7 -9 -11.0771 -13.5391
c-29.7686 -10.9229 -59.6152 -8 -89.2305 2.46191c19.6152 -8.38477 66.4619 -24.6152 66.4619 -24.6152s-123.154 -64.0771 -177.847 -56.6152c-14 1.8457 -24.2305 4.76855 -32 8.61523c31.2314 14.3848 55.4619 27.1533 62.1543 30.7686
c54.3076 29.4619 89.5381 68.0771 128 115.692c46.3076 57.3076 92.9229 194.462 92.9229 194.462c-31.0771 -71.2305 -74.4619 -199.23 -201.23 -280c-28.2314 -18 -59.9229 -35.9229 -93.5391 -51.6924c2.69238 -4.92285 11.0771 -9.8457 11.0771 -9.8457
c-68.2305 -31.4619 -167.846 -70.6162 -181.538 -41.8467c55.0771 5.46191 114.615 25.8467 169.846 51.6924c-23.9229 28.7695 38.9229 81.2305 69.5391 109.538c1.38379 1.30859 3 2.30859 4.30762 3.69238c4.30762 -16.8457 16.5381 -27.9229 33.2305 -32
c-20.6924 13.2314 -27.1543 27.9238 -21.5381 45.5391c23.3076 44.5381 47.1533 89.6152 83.6924 124.923c5.30762 5.1543 10.5381 10.6152 16 16c4.61523 -17.7695 17.1533 -38.9229 34.4609 -44.9229c-10.0771 20.3848 -24.7695 28.8457 -26.4609 52.3076
c40.6152 39.5381 86.6914 81.3848 141.538 92.9229z" />
    <glyph glyph-name="sort-down-filled" unicode="&#xf107;" 
d="M40.96 273.92h430.08l-215.04 -225.28z" />
    <glyph glyph-name="external-link" unicode="&#xf14f;" 
d="M342.08 448h0.959961h0.959961h168v-168c0.0400391 -3.67969 -1.87988 -7.12012 -5.08008 -9c-3.2002 -1.83984 -7.12012 -1.83984 -10.3203 0c-3.19922 1.87988 -5.11914 5.32031 -5.08008 9v132.8l-214.079 -213.76
c-2.48047 -3.04004 -6.44043 -4.44043 -10.2803 -3.55957c-3.7998 0.879883 -6.7998 3.87988 -7.67969 7.67969c-0.880859 3.83984 0.519531 7.7998 3.55957 10.2803l213.76 214.079h-132.8c-5.63965 -0.519531 -10.6797 3.64062 -11.2002 9.28027
c-0.519531 5.64062 3.64062 10.6807 9.28027 11.2002zM20.4805 345.6h307.199c3.68066 0.0400391 7.12012 -1.87988 9 -5.08008c1.83984 -3.19922 1.83984 -7.11914 0 -10.3193c-1.87988 -3.2002 -5.31934 -5.12012 -9 -5.08008h-307.199v-368.64h368.64v307.199
c-0.0400391 3.68066 1.87988 7.12012 5.08008 9c3.2002 1.83984 7.12012 1.83984 10.3193 0c3.2002 -1.87988 5.12012 -5.31934 5.08008 -9v-307.199c0 -5.36035 -1.87988 -10.8408 -5.75977 -14.7207s-9.35938 -5.75977 -14.7197 -5.75977h-368.64
c-5.36035 0 -10.8408 1.87988 -14.7207 5.75977s-5.75977 9.36035 -5.75977 14.7207v368.64c0 5.36035 1.87988 10.8398 5.75977 14.7197s9.36035 5.75977 14.7207 5.75977z" />
    <glyph glyph-name="pricing" unicode="&#xf172;" 
d="M491.48 239.32l0.0390625 -3.28027c0.0400391 -13.8398 0.120117 -28.1602 -9.87988 -38.1201l-232.72 -232.76c-5.55957 -5.60059 -13.04 -8.67969 -20.9199 -8.67969c-7.91992 0 -15.3604 3.0791 -20.9199 8.67969l-177.92 177.92
c-5.60059 5.59961 -8.67969 13.04 -8.67969 20.9199c0 7.91992 3.0791 15.3604 8.67969 20.96l232.72 232.68c9.12012 9.12012 21.7598 9.87988 35.04 9.87988l6.44043 -0.0390625l152.319 0.0390625c19.7607 0 35.8398 -16.0791 35.8398 -35.8398zM326.64 176.64
c11.2803 20.4805 19.4805 42 2.08008 66.5605l16.3604 16.3994l-14.3203 14.3203l-16.3994 -16.3604c-13.3203 10.2402 -44.04 21.4805 -68.6006 -3.0791c-46.0801 -46.0801 45.04 -90.1201 10.2402 -124.921c-12.2803 -12.3193 -27.6396 -17.4395 -50.1602 5.12012
c-22.5596 22.5205 -11.2803 46.0801 -2.08008 55.2803l-14.3193 14.3203c-28.6807 -33.7998 -14.3203 -62.4805 -4.08008 -76.7998l-14.3604 -14.3203l14.3604 -14.3604l13.3193 13.3203c13.2803 -9.2002 47.0801 -26.6396 74.7207 2.04004
c23.5596 23.5596 11.2793 50.2002 -3.04004 73.7598c-12.3203 19.4404 -21.5205 36.8398 -7.2002 51.2002c6.16016 6.12012 23.5596 18.3994 45.0801 -3.08008c15.3594 -15.3604 13.2793 -31.7598 4.08008 -45.0801zM399.36 304.64c16.96 0 30.7197 13.7607 30.7197 30.7207
s-13.7598 30.7197 -30.7197 30.7197s-30.7207 -13.7598 -30.7207 -30.7197s13.7607 -30.7207 30.7207 -30.7207z" />
    <glyph glyph-name="price-tag" unicode="&#xf171;" 
d="M293.12 427.52c3.47949 0.0400391 6.91992 0 10.2402 0h152.319c19.6807 0 35.8398 -16.1592 35.8398 -35.8398v-152.319c0 -6.80078 0.280273 -13.7607 -0.639648 -20.8008s-3.36035 -14.8799 -9.28027 -20.7998l-232.64 -232.64
c-11.4795 -11.4805 -30.4404 -11.4805 -41.9199 0l-177.92 177.92c-11.4805 11.4795 -11.4805 30.4404 0 41.9199l232.64 232.64c5.95996 5.95996 13.7207 8.36035 20.7998 9.28027c3.56055 0.44043 7.08008 0.600586 10.5605 0.639648zM293.44 407.04
c-3 -0.0800781 -5.64062 -0.320312 -8 -0.639648c-4.7207 -0.600586 -7.36035 -1.60059 -8.95996 -3.2002l-232.961 -232.641c-3.63965 -3.63965 -3.63965 -9.47949 0 -13.1191l176.641 -176.32l1.28027 -1.60059c3.63965 -3.63965 9.47949 -3.63965 13.1191 0
l232.641 232.961c1.63965 1.63965 2.59961 3.95996 3.2002 8.63965c0.599609 4.67969 0.639648 11.1201 0.639648 18.2402v152.319c0 8.60059 -6.75977 15.3604 -15.3604 15.3604h-152.319c-3.48047 0 -6.91992 0.0800781 -9.91992 0zM399.36 376.32
c22.5195 0 40.96 -18.4404 40.96 -40.96c0 -22.5205 -18.4404 -40.96 -40.96 -40.96c-22.5205 0 -40.96 18.4395 -40.96 40.96c0 22.5195 18.4395 40.96 40.96 40.96zM399.36 355.84c-11.4404 0 -20.4805 -9.04004 -20.4805 -20.4795
c0 -11.4404 9.04004 -20.4805 20.4805 -20.4805c11.4395 0 20.4795 9.04004 20.4795 20.4805c0 11.4395 -9.04004 20.4795 -20.4795 20.4795z" />
    <glyph glyph-name="info-filled" unicode="&#xf101;" 
d="M256 427.52c130.079 0 235.52 -105.44 235.52 -235.52s-105.44 -235.52 -235.52 -235.52s-235.52 105.44 -235.52 235.52s105.44 235.52 235.52 235.52zM256 335.36c-16.9678 0 -30.7197 -13.7529 -30.7197 -30.7207s13.752 -30.7197 30.7197 -30.7197
s30.7197 13.752 30.7197 30.7197s-13.752 30.7207 -30.7197 30.7207zM296.96 58.8799v20.4805h-20.4795v133.12v20.4795h-40.9609h-20.4795v-20.4795h20.4795v-133.12h-20.4795v-20.4805h20.4795h40.9609h20.4795z" />
    <glyph glyph-name="ellipsis-filled" unicode="&#xf13c;" 
d="M81.9199 243.2c33.9199 0 61.4404 -27.5205 61.4404 -61.4404s-27.5205 -61.4395 -61.4404 -61.4395s-61.4395 27.5195 -61.4395 61.4395s27.5195 61.4404 61.4395 61.4404zM256 243.2c33.9199 0 61.4404 -27.5205 61.4404 -61.4404s-27.5205 -61.4395 -61.4404 -61.4395
s-61.4404 27.5195 -61.4404 61.4395s27.5205 61.4404 61.4404 61.4404zM430.08 243.2c33.9199 0 61.4395 -27.5205 61.4395 -61.4404s-27.5195 -61.4395 -61.4395 -61.4395s-61.4404 27.5195 -61.4404 61.4395s27.5205 61.4404 61.4404 61.4404z" />
    <glyph glyph-name="cog-wheel" unicode="&#xf15f;" 
d="M227.38 427.52h56.3203h0.0117188c4.75098 0 9.27051 -3.79883 10.0879 -8.47949l10.7197 -61.2803c11.9961 -3.53711 23.3975 -8.31738 34.1406 -14.2197l50.4199 36.2598c1.48047 1.06641 4.16211 1.93164 5.98633 1.93164c2.33789 0 5.57812 -1.33984 7.2334 -2.99121
l39.8398 -39.8203c1.6543 -1.65527 2.99707 -4.89844 2.99707 -7.23926c0 -1.78418 -0.832031 -4.41895 -1.85645 -5.88086l-35.9199 -51.1797c5.82617 -10.6816 10.5303 -21.9873 14.04 -33.8604l61.5195 -10.0596c4.7334 -0.77832 8.57715 -5.30273 8.58008 -10.1006
v-56.3193v-0.015625c0 -4.74219 -3.79004 -9.25977 -8.45996 -10.085l-61.6201 -10.7998c-3.48535 -11.8867 -8.17676 -23.2129 -14 -33.8994l36.4199 -50.5605c1.06641 -1.48047 1.93164 -4.16211 1.93164 -5.98633c0 -2.33789 -1.33984 -5.57812 -2.99121 -7.2334
l-39.8203 -39.8604c-1.65527 -1.6543 -4.89844 -2.99707 -7.23926 -2.99707c-1.78516 0 -4.41895 0.832031 -5.88086 1.85742l-51.0801 35.8398c-10.7383 -5.92578 -22.1328 -10.7314 -34.0996 -14.2998l-10.8604 -61.2998
c-0.824219 -4.66992 -5.34277 -8.45996 -10.085 -8.45996h-0.0146484h-56.3203c-4.78906 0.000976562 -9.31348 3.83496 -10.0996 8.55957l-10.1406 61.0596c-12.0166 3.51562 -23.4648 8.25098 -34.2598 14.1406l-50.7402 -35.5205
c-1.45703 -1.01562 -4.08105 -1.83984 -5.85742 -1.83984c-2.3418 0 -5.58594 1.34375 -7.24219 3l-39.8203 39.8398c-1.64844 1.65527 -2.98633 4.89355 -2.98633 7.22852c0 1.81152 0.854492 4.47754 1.90625 5.95215l35.8408 50.1396
c-5.95605 10.8389 -10.7305 22.332 -14.2803 34.4004l-60.7598 10.7598c-4.65918 0.832031 -8.44043 5.34863 -8.44043 10.0811v0.0185547v56.3203v0.000976562c0 4.78027 3.82617 9.30469 8.54004 10.0986l60.7197 10.1006c3.56934 12.0889 8.375 23.5742 14.3203 34.3994
l-35.4004 50.6406c-1.02441 1.46094 -1.85645 4.0957 -1.85645 5.88086c0 2.33984 1.34277 5.58301 2.99707 7.23926l39.8398 39.7998c1.6543 1.64844 4.89258 2.98633 7.22852 2.98633c1.81152 0 4.47754 -0.854492 5.95117 -1.90625l50.3203 -35.9404
c10.7627 5.85547 22.1836 10.5566 34.1602 14.04l9.95996 60.9805c0.777344 4.7334 5.30273 8.57715 10.0996 8.5791zM236.1 407.04l-9.45996 -57.8799c-0.599609 -3.68848 -4.03125 -7.40723 -7.65918 -8.2998c-15.001 -3.67871 -29.1621 -9.53809 -42.0205 -17.2607
c-1.34375 -0.806641 -3.70703 -1.46191 -5.27441 -1.46191c-1.80859 0 -4.47266 0.852539 -5.94531 1.90234l-47.7402 34.1201l-27.6201 -27.6006l33.6396 -48.0791c1.01953 -1.45898 1.84668 -4.08691 1.84668 -5.86621c0 -1.58203 -0.666016 -3.96191 -1.48633 -5.31445
c-7.81445 -12.9316 -13.7441 -27.0566 -17.5195 -42.1602c-0.899414 -3.59863 -4.60059 -7.0127 -8.26074 -7.62012l-57.6191 -9.5791v-39.0605l57.6592 -10.2402c3.60547 -0.641602 7.25293 -4.04688 8.14062 -7.59961c3.74316 -15.0508 9.67578 -29.1787 17.5195 -42.1396
c0.820312 -1.35156 1.48535 -3.73145 1.48535 -5.31152c0 -1.81055 -0.853516 -4.47559 -1.90527 -5.94922l-34.04 -47.5801l27.6006 -27.6396l48.1592 33.7402c1.46094 1.02344 4.09473 1.85449 5.87891 1.85449c1.56348 0 3.91992 -0.651367 5.26172 -1.45508
c12.9258 -7.75879 27.0547 -13.666 42.04 -17.3594c3.60742 -0.893555 7.03027 -4.59375 7.63965 -8.25977l9.63965 -57.9805h39.0605l10.3398 58.2402c0.639648 3.59961 4.03516 7.24609 7.58008 8.13965c14.9258 3.78418 29.0059 9.72852 41.7803 17.5
c1.35352 0.824219 3.73926 1.49316 5.32422 1.49316c1.7832 0 4.41504 -0.830078 5.875 -1.85254l48.54 -34.0605l27.5801 27.5996l-34.5996 48.0205c-1.06348 1.47852 -1.92676 4.15723 -1.92676 5.97949c0 1.56934 0.657227 3.93555 1.4668 5.28027
c7.69434 12.8086 13.5352 26.7852 17.2197 41.6602c0.878906 3.5752 4.53418 6.99805 8.16016 7.63965l58.5596 10.2803v39l-58.4395 9.56055c-3.66797 0.600586 -7.37793 4.01367 -8.28027 7.61914c-3.72852 14.8945 -9.56445 28.8711 -17.2598 41.6807
c-0.806641 1.34277 -1.46191 3.70508 -1.46191 5.27246c0 1.78711 0.833984 4.4248 1.8623 5.8877l34.1191 48.6191l-27.5791 27.5801l-47.9209 -34.4395c-1.47754 -1.06152 -4.15332 -1.92285 -5.97266 -1.92285c-1.5791 0 -3.95605 0.664062 -5.30664 1.48242
c-12.8389 7.77246 -26.9043 13.6885 -41.8799 17.4199c-3.56641 0.893555 -6.9707 4.55859 -7.60059 8.18066l-10.2002 58.2197h-39zM256 273.92c45.1221 0 81.9199 -36.7979 81.9199 -81.9199s-36.7979 -81.9199 -81.9199 -81.9199s-81.9199 36.7979 -81.9199 81.9199
s36.7979 81.9199 81.9199 81.9199zM256 253.44c-34.0537 0 -61.4404 -27.3867 -61.4404 -61.4404s27.3867 -61.4404 61.4404 -61.4404s61.4404 27.3867 61.4404 61.4404s-27.3867 61.4404 -61.4404 61.4404z" />
    <glyph glyph-name="chevron-left" unicode="&#xf149;" 
d="M287.23 377.385l55.6924 -55.6924l-129.692 -129.692l129.692 -129.692l-55.6924 -55.6924l-185.385 185.385z" />
    <glyph glyph-name="unavailable" unicode="&#xf13b;" 
d="M256 396.8c112.906 0 204.8 -91.8936 204.8 -204.8c0 -54.8008 -21.7744 -104.537 -56.9668 -141.333c-1.2959 -2.31055 -4.22266 -5.2373 -6.5332 -6.53418c-36.792 -35.1729 -86.5156 -56.9326 -141.3 -56.9326c-112.906 0 -204.8 91.8936 -204.8 204.8
c0 54.8945 21.835 104.719 57.1328 141.533c1.25195 2.12695 4 4.86035 6.13379 6.10059c36.8154 35.3076 86.6309 57.166 141.533 57.166zM256 362.667c-41.0684 0 -78.6611 -14.4189 -108.066 -38.4668l240.267 -240.267c24.0479 29.4053 38.4668 66.998 38.4668 108.066
c0 94.459 -76.208 170.667 -170.667 170.667zM123.8 300.066c-24.0479 -29.4053 -38.4668 -66.998 -38.4668 -108.066c0 -94.459 76.208 -170.667 170.667 -170.667c41.0684 0 78.6611 14.4189 108.066 38.4668z" />
    <glyph glyph-name="reboot" unicode="&#xf132;" 
d="M256 427.52c60.7197 0 116.16 -23.0791 157.92 -60.8799l26.4004 30.1602l20.4795 -92.1602l-92.1602 10.2402l31.8408 36.3604c-38.2002 34.6396 -88.8008 55.7998 -144.48 55.7998c-118.88 0 -215.04 -96.1602 -215.04 -215.04s96.1602 -215.04 215.04 -215.04
s215.04 96.1602 215.04 215.04h20.4795c0 -129.96 -105.56 -235.52 -235.52 -235.52s-235.52 105.56 -235.52 235.52s105.56 235.52 235.52 235.52z" />
    <glyph glyph-name="monitor-filled" unicode="&#xf114;" 
d="M40.96 396.8h430.08c11.2949 0 20.4795 -9.18555 20.4795 -20.4795v-296.96c0 -11.2949 -9.18457 -20.4805 -20.4795 -20.4805h-430.08c-11.2949 0 -20.4795 9.18555 -20.4795 20.4805v296.96c0 11.2939 9.18457 20.4795 20.4795 20.4795zM40.96 376.32v-235.521h430.08
v-61.4395h0.0195312l-0.0195312 296.96h-430.08zM419.84 110.08v-20.4805h20.4805v20.4805h-20.4805zM194.56 38.4004h122.881v-20.4805h30.7197c20.4795 0 30.7197 -10.2402 30.7197 -30.7197v-10.2402h-245.76v10.2402c0 20.4795 10.2402 30.7197 30.7197 30.7197h30.7197
v20.4805z" />
    <glyph glyph-name="sort-left-filled" unicode="&#xf108;" 
d="M348.16 396.8v-430.08l-225.28 215.04z" />
    <glyph glyph-name="print" unicode="&#xf150;" 
d="M144 384h224v-112h32c26.3125 0 48 -21.6875 48 -48v-160h-80v-64h-224v64h-80v160c0 26.3125 21.6875 48 48 48h32v112zM176 352v-80h160v80h-160zM112 240c-9.0625 0 -16 -6.9375 -16 -16v-128h48v64h224v-64h48v128c0 9.0625 -6.9375 16 -16 16h-288zM128 224
c8.8125 0 16 -7.1875 16 -16s-7.1875 -16 -16 -16s-16 7.1875 -16 16s7.1875 16 16 16zM176 128v-96h160v96h-160z" />
    <glyph glyph-name="new" unicode="&#xf111;" 
d="M308.96 427.12c1.36426 -0.100586 2.71582 -0.314453 4.04004 -0.639648c5.29785 -1.30469 10.1729 -4.38477 13.6201 -8.98047l27.1201 -36.1602l45.1797 -1.78027c11.4434 -0.464844 21.0869 -9.0293 22.96 -20.2998v-0.0195312l7.2002 -44.6406l39.1797 -22.5996
c9.93848 -5.72168 14.4854 -17.7812 10.9004 -28.6396v-0.0205078l-14.3799 -42.8994l24.2002 -38.1807c6.13672 -9.68066 4.57031 -22.499 -3.7207 -30.4395l-32.6201 -31.2803l3.68066 -45.0801c0.927734 -11.417 -6.40332 -22.0557 -17.4004 -25.2402h-0.0195312
l-43.4199 -12.5195l-17.6807 -41.6006c-4.49121 -10.5479 -15.9316 -16.665 -27.2402 -14.2393l-44.2393 9.05957l-34.96 -28.6201c-4.4248 -3.63281 -9.88965 -5.5 -15.3408 -5.5c-5.42871 0 -10.9229 1.85742 -15.3594 5.5v-0.0195312l-34.96 28.6201l-44.2402 -9.06055
c-11.3301 -2.44434 -22.7432 3.7168 -27.2402 14.2197v0.0205078l-17.6797 41.6201l-43.4404 12.5195h-0.0195312c-10.9668 3.20215 -18.3115 13.8057 -17.3799 25.2402l3.67969 45.0596l-32.6201 31.2803c-8.30176 7.94043 -9.83301 20.7656 -3.7002 30.4404
l24.2002 38.1797l-14.3799 42.9004c-3.62793 10.8838 0.969727 22.9434 10.9004 28.6602l39.1602 22.5996l7.21973 44.6201c1.82617 11.3164 11.4775 19.8945 22.9199 20.3594h0.0195312l45.1807 1.78027l27.1201 36.1797v0.0205078
c6.89551 9.13086 19.4238 12.2422 29.7793 7.2998h0.0205078l40.7998 -19.4199l40.7803 19.4004c3.88867 1.86914 8.08789 2.60059 12.1797 2.2998zM205.18 407.36c-1.47656 0.151367 -2.95508 -0.476562 -3.93945 -1.78027l-32.7598 -43.7002l-54.6006 -2.13965
c-2.14746 -0.0947266 -3.7959 -1.56738 -4.13965 -3.7002l-8.7207 -53.9404l-47.3398 -27.3193h-0.0195312c-1.8457 -1.0625 -2.65332 -3.16113 -1.98047 -5.18066l17.3799 -51.8193l-29.2598 -46.1602c-1.13672 -1.79395 -0.868164 -4 0.680664 -5.48047v-0.0195312
l39.4395 -37.7998l-4.43945 -54.4805c-0.174805 -2.14355 1.08105 -3.97363 3.15918 -4.58008l52.4805 -15.1201l21.3398 -50.2998v0.0400391c0.869141 -2.03027 2.8584 -3.06348 4.82031 -2.63965h0.0595703l53.6201 10.9795l42.2803 -34.5996
c0.826172 -0.678711 1.75781 -0.980469 2.7793 -0.980469c1.00098 0 1.92188 0.311523 2.76074 1l42.2793 34.6006l53.6201 -10.9805l0.0400391 -0.0195312c1.96289 -0.420898 3.98633 0.613281 4.83984 2.62012l21.3408 50.2793l52.5 15.1406
c2.08887 0.604492 3.31738 2.39844 3.13965 4.58008l-4.44043 54.46l39.4404 37.8193c1.54785 1.48145 1.80957 3.71777 0.679688 5.5l-29.2393 46.1602l17.3594 51.7998c0.663086 2.03809 -0.148438 4.14648 -1.97949 5.2002l-47.3604 27.3203l-8.7002 53.8799
c-0.359375 2.16406 -2.02441 3.65234 -4.17969 3.74023l-54.6006 2.13965l-32.7793 43.7197c-1.27734 1.70312 -3.50391 2.23242 -5.36035 1.34082h-0.0195312l-49.3604 -23.4805l-49.3604 23.4805c-0.47168 0.225586 -0.967773 0.369141 -1.45996 0.419922zM122.88 232.96
h16.46l40.6797 -60.54v60.54h14.54v-81.9199h-16.46l-40.6797 60.54v-60.54h-14.54v81.9199zM215.04 232.96h61.4404v-12.46h-46.7607v-18.5801h43.1006v-11.5596h-43.1006v-26.8408h46.7607v-12.4795h-61.4404v81.9199zM286.72 232.96h14.9004l15.8203 -63.2197
l17.6797 63.2197h15.8203l16.7598 -63.2197l15.8398 63.2197h15.8203l-23.2803 -81.9199h-14.9004l-17.6797 62.3398l-18.6201 -62.3398h-15.8203z" />
    <glyph glyph-name="plus-sign" unicode="&#xf16a;" 
d="M92.1602 407.04h327.68c28.1133 0 51.2002 -23.0869 51.2002 -51.2002v-327.68c0 -28.1133 -23.0869 -51.2002 -51.2002 -51.2002h-327.68c-28.1133 0 -51.2002 23.0869 -51.2002 51.2002v327.68c0 28.1133 23.0869 51.2002 51.2002 51.2002zM92.1602 386.56
c-16.9424 0 -30.7197 -13.7773 -30.7197 -30.7197v-327.68c0 -16.9424 13.7773 -30.7197 30.7197 -30.7197h327.68c16.9424 0 30.7197 13.7773 30.7197 30.7197v327.68c0 16.9424 -13.7773 30.7197 -30.7197 30.7197h-327.68zM245.76 314.88h20.4805v-112.64h112.64
v-20.4805h-112.64v-112.64h-20.4805v112.64h-112.64v20.4805h112.64v112.64z" />
    <glyph glyph-name="cog-wheel-2" unicode="&#xf160;" 
d="M482.918 230.697c4.95703 -0.80957 8.5918 -5.08984 8.58105 -10.1074v-56.3193c0 -4.9668 -3.56348 -9.22656 -8.46777 -10.0869l-60.6006 -10.6396c-3.5127 -12.1445 -8.33496 -23.8379 -14.4072 -34.8975l35.8193 -49.7354
c2.93848 -4.07617 2.47754 -9.67676 -1.06543 -13.2305l-39.8125 -39.8438c-3.52344 -3.5127 -9.05273 -4.01465 -13.1279 -1.13672l-50.2275 35.2354c-11.0791 -6.16406 -22.8457 -11.0791 -35.123 -14.6943l-10.7012 -60.3135
c-0.859375 -4.88379 -5.10938 -8.44727 -10.0762 -8.44727h-56.3193c-5.00781 0 -9.27734 3.61426 -10.0869 8.54004l-9.99414 60.0166c-12.2568 3.54297 -24.084 8.42676 -35.2764 14.5811l-49.8691 -34.9287c-4.06543 -2.85645 -9.60547 -2.36523 -13.1172 1.14746
l-39.8135 39.8438c-3.53223 3.55371 -3.99316 9.13379 -1.08496 13.1992l35.2354 49.2852c-6.21582 11.2432 -11.1514 23.1113 -14.7246 35.4307l-59.71 10.5879c-4.88379 0.870117 -8.44824 5.12012 -8.44824 10.0869v56.3193c0 4.99707 3.625 9.27734 8.56152 10.0967
l59.709 9.94336c3.59473 12.3496 8.53027 24.2178 14.7256 35.4307l-34.8066 49.7969c-2.85645 4.06543 -2.36523 9.59473 1.14746 13.1074l39.8027 39.8027c3.55371 3.53223 9.11328 4.00391 13.1992 1.08496l49.459 -35.3281
c11.1104 6.08301 22.9072 10.9268 35.1953 14.459l9.78906 59.9453c0.80957 4.95605 5.08984 8.59082 10.1074 8.59082h56.3193c4.97754 0 9.22656 -3.58398 10.0869 -8.47852l10.5576 -60.2725c12.2158 -3.55273 23.9922 -8.44824 35.1436 -14.6123l49.5918 35.6455
c4.07617 2.93848 9.66699 2.47754 13.2207 -1.06543l39.8232 -39.8027c3.51172 -3.52246 4.00391 -9.0625 1.14648 -13.1279l-35.3281 -50.3496c6.0625 -11.0488 10.9062 -22.7227 14.4492 -34.8672zM256 120.32c39.5879 0 71.6797 32.0918 71.6797 71.6797
s-32.0918 71.6797 -71.6797 71.6797s-71.6797 -32.0918 -71.6797 -71.6797s32.0918 -71.6797 71.6797 -71.6797z" />
    <glyph glyph-name="exchange" unicode="&#xf10d;" 
d="M152.96 407.04c3.95996 0.0400391 7.55957 -2.2002 9.28027 -5.75977l3.83984 -8c9.2002 -1.44043 17.5195 -4.56055 23.3604 -10.2402c7.31934 -7.12012 11.6797 -16.4404 14.0791 -25.5996c2.40039 -9.16016 2.7207 -18.2002 1.9209 -26.5605
c-0.520508 -5.2002 -2.76074 -9.36035 -4.48047 -13.7598c0.480469 -0.839844 1.87988 -1.08008 2.24023 -1.91992c1.75977 -4.16016 2.51953 -8.91992 1.91992 -14.0801c-0.959961 -8.12012 -3.16016 -14.2803 -6.71973 -18.8799
c-1.36035 -1.75977 -3.44043 -1.7207 -5.12012 -2.87988c-1.24023 -6.32031 -2.91992 -12.6406 -5.44043 -17.9199c-1.55957 -3.28027 -3.28027 -6.36035 -5.12012 -8.95996c-0.479492 -0.680664 -1.43945 -1.28027 -1.91992 -1.9209
c-0.0400391 -6.63965 -0.200195 -12.3193 0.320312 -19.1992c1.55957 -3.48047 5 -6.7207 11.8398 -10.2402c7.24023 -3.71973 17.2803 -7.28027 27.5205 -11.8398c10.2393 -4.56055 21 -10.3604 29.7598 -19.5205c2.24023 -2.31934 3.59961 -5.51953 5.43945 -8.31934
c1.7207 2.71973 3.04004 6.04004 5.12012 8.31934c8.28027 9.2002 18.4805 14.96 28.1602 19.5205c9.67969 4.55957 19.1201 7.83984 25.9199 11.5195c6.44043 3.48047 9.60059 6.87988 11.2002 10.5605c0.519531 7 0.679688 12.7197 0.639648 19.5195
c-0.439453 0.600586 -1.43945 0.959961 -1.91992 1.60059c-1.87988 2.55957 -3.51953 5.35938 -5.12012 8.63965c-2.55957 5.16016 -4.16016 11.6396 -5.43945 17.9199c-1.87988 1.2002 -3.95996 1.28027 -5.44043 3.2002
c-3.55957 4.59961 -5.75977 10.7598 -6.71973 18.8799c-0.839844 7.12012 1.2002 12.3604 4.16016 16.6396c-6.64062 19.7998 -5.95996 40.96 5.12012 57.9199c12.3193 18.8398 35.6396 31.3604 66.8799 31.3604c3.95996 0.0400391 7.55957 -2.2002 9.2793 -5.75977
l3.84082 -8c9.19922 -1.44043 17.5195 -4.56055 23.3594 -10.2402c7.32031 -7.12012 11.6807 -16.4404 14.0801 -25.5996c2.40039 -9.16016 2.71973 -18.2002 1.91992 -26.5605c-0.519531 -5.2002 -2.75977 -9.36035 -4.47949 -13.7598
c0.479492 -0.839844 1.87988 -1.08008 2.24023 -1.91992c1.75977 -4.16016 2.51953 -8.91992 1.91992 -14.0801c-0.959961 -8.12012 -3.16016 -14.2803 -6.7207 -18.8799c-1.35938 -1.75977 -3.43945 -1.7207 -5.12012 -2.87988
c-1.23926 -6.32031 -2.91992 -12.6406 -5.43945 -17.9199c-1.56055 -3.28027 -3.28027 -6.36035 -5.12012 -8.95996c-0.480469 -0.680664 -1.44043 -1.28027 -1.91992 -1.9209c-0.0400391 -6.63965 -0.200195 -12.3193 0.320312 -19.1992
c1.55957 -3.48047 5 -6.7207 11.8398 -10.2402c7.24023 -3.71973 17.2793 -7.28027 27.5195 -11.8398c10.2402 -4.56055 21 -10.3604 29.7598 -19.5205c8.76074 -9.16016 15.04 -21.8398 16 -38.0801c0.160156 -2.83984 -0.839844 -5.59961 -2.75977 -7.63965
c-1.95996 -2.08008 -4.63965 -3.24023 -7.47949 -3.24023h-450.561c-2.83984 0 -5.51953 1.16016 -7.47949 3.24023c-1.91992 2.04004 -2.91992 4.7998 -2.75977 7.63965c0.959961 16.1201 6.75977 28.8799 15.0391 38.0801c8.28027 9.2002 18.4805 14.96 28.1602 19.5205
c9.68066 4.55957 19.1201 7.83984 25.9199 11.5195c6.44043 3.48047 9.60059 6.87988 11.2002 10.5605c0.520508 7 0.680664 12.7197 0.640625 19.5195c-0.44043 0.600586 -1.44043 0.959961 -1.9209 1.60059c-1.87988 2.55957 -3.51953 5.35938 -5.11914 8.63965
c-2.56055 5.16016 -4.16016 11.6396 -5.44043 17.9199c-1.87988 1.2002 -3.95996 1.28027 -5.44043 3.2002c-3.55957 4.59961 -5.75977 10.7598 -6.71973 18.8799c-0.839844 7.12012 1.2002 12.3604 4.16016 16.6396c-6.63965 19.7998 -5.95996 40.96 5.12012 57.9199
c12.3203 18.8398 35.6396 31.3604 66.8799 31.3604zM147.52 385.28c-22.0791 -1.48047 -36.6396 -9.32031 -44.1592 -20.7998c-8.24023 -12.6006 -9.28027 -29.1602 -2.24023 -45.1201c1.95996 -4.48047 0.479492 -9.68066 -3.52051 -12.4805
c-0.279297 -0.399414 -0.879883 -1.32031 -0.639648 -3.2002c0.639648 -5.43945 2.04004 -7.91992 2.55957 -8.63965v-0.320312c4.44043 -0.839844 7.84082 -4.47949 8.32031 -8.95996c0.480469 -4.63965 2.44043 -10.5596 4.7998 -15.3594
c1.16016 -2.40039 2.56055 -4.44043 3.52051 -5.76074c0.959961 -1.31934 2.04004 -1.87988 0.320312 -0.959961c3.43945 -1.7998 5.51953 -5.39941 5.43945 -9.2793c0 -8.88086 0.320312 -16.2402 -0.639648 -26.8809
c-0.120117 -0.879883 -0.320312 -1.71973 -0.640625 -2.55957c-3.87988 -10.6797 -12.3594 -17.3203 -21.1201 -22.0801c-8.75977 -4.75977 -18.2393 -8.08008 -26.8799 -12.1602c-8.63965 -4.08008 -16.3193 -8.67969 -21.7598 -14.7197
c-3.47949 -3.83984 -5.95996 -8.87988 -7.67969 -14.7197h200.319c-1.7998 5.67969 -4.31934 10.5596 -8 14.3994c-5.7998 6.08008 -14.1191 10.6406 -23.3594 14.7207s-19.3203 7.75977 -28.4805 12.4795s-18.3994 11.2002 -22.3994 22.0801
c-0.320312 0.839844 -0.520508 1.67969 -0.640625 2.55957c-0.959961 10.6406 -0.319336 18 -0.319336 26.8809c-0.0400391 3.43945 1.63965 6.67969 4.47949 8.63965c0.200195 0.120117 0.799805 0.639648 1.28027 1.28027
c0.919922 1.31934 2.04004 3.35938 3.2002 5.75977c2.2793 4.7998 4.31934 10.96 4.7998 15.6797c0.439453 4.40039 3.67969 8 8 8.95996v0.320312c0.519531 0.759766 1.91992 2.91992 2.55957 8.32031c0.200195 1.83984 -0.199219 2.75977 -0.319336 3.19922
c-2.32031 1.60059 -3.87988 4.08008 -4.28027 6.88086c-0.44043 2.7998 0.320312 5.59961 2.04004 7.83984c0.519531 0.639648 2.59961 5.55957 3.2002 11.5195c0.599609 5.95996 0.0800781 13.04 -1.60059 19.5205c-1.67969 6.47949 -4.7998 12.2393 -8.63965 16
c-3.83984 3.75977 -8.44043 6.08008 -16 6.08008c-3.75977 0.0400391 -7.2002 2.11914 -8.95996 5.43945zM372.8 385.28c-22.0801 -1.48047 -36.6396 -9.32031 -44.1602 -20.7998c-8.23926 -12.6006 -9.2793 -29.1602 -2.23926 -45.1201
c1.95996 -4.48047 0.479492 -9.68066 -3.52051 -12.4805c-0.280273 -0.399414 -0.879883 -1.32031 -0.639648 -3.2002c0.639648 -5.43945 2.04004 -7.91992 2.55957 -8.63965v-0.320312c4.44043 -0.839844 7.83984 -4.47949 8.32031 -8.95996
c0.479492 -4.63965 2.43945 -10.5596 4.7998 -15.3594c1.16016 -2.40039 2.56055 -4.44043 3.52051 -5.76074c0.959961 -1.31934 2.04004 -1.87988 0.319336 -0.959961c3.44043 -1.7998 5.52051 -5.39941 5.44043 -9.2793c0 -8.88086 0.319336 -16.2402 -0.640625 -26.8809
c-0.119141 -0.879883 -0.319336 -1.71973 -0.639648 -2.55957c-3.87988 -10.6797 -12.3604 -17.3203 -21.1201 -22.0801s-18.2402 -8.08008 -26.8799 -12.1602s-16.3203 -8.67969 -21.7598 -14.7197c-3.48047 -3.83984 -5.95996 -8.87988 -7.67969 -14.7197h200.319
c-1.7998 5.67969 -4.31934 10.5596 -8 14.3994c-5.7998 6.08008 -14.1201 10.6406 -23.3594 14.7207c-9.24023 4.08008 -19.3203 7.75977 -28.4805 12.4795s-18.4004 11.2002 -22.4004 22.0801c-0.319336 0.839844 -0.519531 1.67969 -0.639648 2.55957
c-0.959961 10.6406 -0.320312 18 -0.320312 26.8809c-0.0400391 3.43945 1.64062 6.67969 4.48047 8.63965c0.200195 0.120117 0.799805 0.639648 1.28027 1.28027c0.919922 1.31934 2.04004 3.35938 3.19922 5.75977c2.28027 4.7998 4.32031 10.96 4.80078 15.6797
c0.439453 4.40039 3.67969 8 8 8.95996v0.320312c0.519531 0.759766 1.91992 2.91992 2.55957 8.32031c0.200195 1.83984 -0.200195 2.75977 -0.320312 3.19922c-2.31934 1.60059 -3.87988 4.08008 -4.2793 6.88086c-0.44043 2.7998 0.319336 5.59961 2.04004 7.83984
c0.519531 0.639648 2.59961 5.55957 3.19922 11.5195c0.600586 5.95996 0.0800781 13.04 -1.59961 19.5205c-1.67969 6.47949 -4.7998 12.2393 -8.63965 16c-3.83984 3.75977 -8.44043 6.08008 -16 6.08008c-3.76074 0.0400391 -7.2002 2.11914 -8.95996 5.43945z
M429.12 100.16c3.12012 0.240234 6.2002 -0.919922 8.32031 -3.2002l50.2393 -50.5596c0.240234 -0.200195 0.44043 -0.400391 0.640625 -0.640625h0.319336c0.480469 -0.479492 0.919922 -1.04004 1.28027 -1.59961
c0.120117 -0.200195 0.240234 -0.44043 0.320312 -0.640625c0.120117 -0.119141 0.200195 -0.199219 0.319336 -0.319336c0.120117 -0.200195 0.240234 -0.44043 0.320312 -0.640625v-0.319336c0.120117 -0.200195 0.240234 -0.44043 0.320312 -0.640625v-0.319336
c0.120117 -0.200195 0.240234 -0.44043 0.319336 -0.640625v-0.319336v-0.640625c0.160156 -1.08008 0.160156 -2.12012 0 -3.19922c-0.0791016 -0.320312 -0.199219 -0.640625 -0.319336 -0.960938v-0.319336c-0.0800781 -0.200195 -0.200195 -0.44043 -0.320312 -0.640625
c-0.240234 -0.679688 -0.55957 -1.31934 -0.959961 -1.91992c-0.200195 -0.239258 -0.400391 -0.439453 -0.639648 -0.639648c-0.200195 -0.320312 -0.400391 -0.639648 -0.640625 -0.959961c-0.479492 -0.480469 -1.04004 -0.919922 -1.59961 -1.28027l-49.5996 -49.9199
c-4.08008 -4.08008 -10.6406 -4.08008 -14.7207 0s-4.08008 10.6406 0 14.7197l33.6006 33.6006h-138.88c-5.64062 -0.280273 -10.4404 4.12012 -10.7207 9.75977c-0.279297 5.63965 4.12012 10.4404 9.76074 10.7197h0.959961h138.88l-33.6006 33.6006
c-2.83984 2.63965 -3.95996 6.63965 -2.87988 10.3994c1.08008 3.7207 4.16016 6.52051 8 7.2002c0.400391 0.120117 0.839844 0.240234 1.28027 0.320312zM80.6396 99.8398c4.44043 0.719727 8.87988 -1.51953 10.8408 -5.59961c2 -4.04004 1.11914 -8.91992 -2.2002 -12
l-33.6006 -33.6006h138.88c3.68066 0.0400391 7.12012 -1.87988 9 -5.08008c1.84082 -3.19922 1.84082 -7.11914 0 -10.3193c-1.87988 -3.2002 -5.31934 -5.12012 -9 -5.08008h-138.88l33.6006 -33.6006c4.08008 -4.0791 4.08008 -10.6396 0 -14.7197
s-10.6406 -4.08008 -14.7207 0l-49.2793 49.2803c-3.7207 1.75977 -6.04004 5.55957 -5.87988 9.63965c0.119141 4.12012 2.67969 7.75977 6.51953 9.24023l48.6396 48.96c1.64062 1.59961 3.80078 2.63965 6.08008 2.87988zM235.52 48.6396
c5.64062 0 10.2402 -4.59961 10.2402 -10.2393c0 -5.64062 -4.59961 -10.2402 -10.2402 -10.2402c-5.63965 0 -10.2393 4.59961 -10.2393 10.2402c0 5.63965 4.59961 10.2393 10.2393 10.2393zM276.48 48.6396c5.63965 0 10.2393 -4.59961 10.2393 -10.2393
c0 -5.64062 -4.59961 -10.2402 -10.2393 -10.2402c-5.64062 0 -10.2402 4.59961 -10.2402 10.2402c0 5.63965 4.59961 10.2393 10.2402 10.2393z" />
    <glyph glyph-name="attention" unicode="&#xf145;" 
d="M256 427.52c129.953 0 235.52 -105.566 235.52 -235.52s-105.566 -235.52 -235.52 -235.52s-235.52 105.566 -235.52 235.52s105.566 235.52 235.52 235.52zM256 407.04c-118.885 0 -215.04 -96.1553 -215.04 -215.04s96.1553 -215.04 215.04 -215.04
s215.04 96.1553 215.04 215.04s-96.1553 215.04 -215.04 215.04zM243.72 301.56h23.54c2.04785 0 4.10059 -1.00781 4.10059 -4.0791v-138.24c0 -2.04785 -1.02832 -4.10059 -4.10059 -4.10059h-23.54c-2.04785 0 -4.09961 1.02832 -4.09961 4.10059v138.24
c0 2.04785 1.02832 4.0791 4.09961 4.0791zM243.72 117.24h24.5605c2.04785 0 4.09961 -1.00781 4.09961 -4.08008v-26.6406c0 -2.04785 -1.02832 -4.0791 -4.09961 -4.0791h-24.5605c-2.04785 0 -4.09961 1.00781 -4.09961 4.0791v26.6406
c0 2.04785 1.02832 4.08008 4.09961 4.08008z" />
    <glyph glyph-name="address" unicode="&#xf129;" 
d="M256 427.52c73.4004 0 133.12 -59.7197 133.12 -133.119c0 -52 -31.7998 -116.2 -62.8799 -168.881c-31.04 -52.6797 -62.0801 -93.3594 -62.0801 -93.3594l-8.16016 -10.6006l-8.16016 10.6006s-31.04 40.6797 -62.0801 93.3594
c-31.0801 52.6807 -62.8799 116.881 -62.8799 168.881c0 73.3994 59.7197 133.119 133.12 133.119zM256 407.04c-62.3203 0 -112.64 -50.3203 -112.64 -112.64c0 -43.1602 29.6396 -106.96 60 -158.48c26.3193 -44.5996 46.04 -70.2803 52.6396 -79.0801
c6.59961 8.7998 26.3203 34.4805 52.6396 79.0801c30.3604 51.5205 60 115.32 60 158.48c0 62.3193 -50.3193 112.64 -112.64 112.64zM256 345.6c28.1602 0 51.2002 -23.04 51.2002 -51.1992c0 -28.1602 -23.04 -51.2002 -51.2002 -51.2002s-51.2002 23.04 -51.2002 51.2002
c0 28.1592 23.04 51.1992 51.2002 51.1992zM256 325.12c-17.0801 0 -30.7197 -13.6396 -30.7197 -30.7197s13.6396 -30.7207 30.7197 -30.7207s30.7197 13.6406 30.7197 30.7207s-13.6396 30.7197 -30.7197 30.7197zM74.7197 120.32h78.3604
c4 -7.04004 8 -13.8799 12 -20.4805h-75.96l-43.8398 -122.88h421.439l-43.8398 122.88h-75.96c4 6.60059 8 13.4404 12 20.4805h78.3604l58.5596 -163.84h-479.68z" />
    <glyph glyph-name="hand" unicode="&#xf12b;" 
d="M266.24 448c19.4395 0 33.1201 -12.6797 38.3994 -27.5195c6.36035 4 13.7607 7.03906 23.04 7.03906c12.2803 0 23.8398 -4.39941 31.04 -13.7598c7.2002 -9.35938 9.91992 -21.8799 9.91992 -37.4395v-6.08008c5.76074 3.35938 12.3604 6.08008 20.4805 6.08008
c17.5195 0 29.8398 -9.7207 35.2002 -20.8008c5.35938 -11.0791 5.75977 -22.7598 5.75977 -30.3994v-296.96c0 -50.6406 -41.5205 -92.1602 -92.1602 -92.1602h-82.8799c-28.5996 0 -55.3604 12.7998 -72.6396 35.8398l-118.08 151.36l-0.640625 0.959961
c-17.2393 18.1201 -17.1201 46.6797 0.959961 63.6797c0.0800781 0.0800781 -0.0800781 0.240234 0 0.320312c18.1602 17.7998 47.5205 18.1201 64.6406 -0.320312c0.120117 -0.200195 0.239258 -0.439453 0.319336 -0.639648l33.2803 -40v219.84v0.639648
c1.32031 25 22.7197 39.3604 41.9199 39.3604c7.04004 0 14.04 -2.44043 20.4805 -6.08008v6.08008c0 19.6797 15.7598 40.96 40.96 40.96zM266.24 427.52c-13.7207 0 -20.4805 -11.5195 -20.4805 -20.4795v-194.56h-20.4795v153.6
c0 7.51953 -2.56055 12.04 -6.40039 15.3604c-3.83984 3.31934 -9.36035 5.11914 -14.0801 5.11914c-9.35938 0 -20.5195 -5.83984 -21.4395 -19.5195v-247.68c0.15918 -4.40039 -2.56055 -8.40039 -6.68066 -9.95996c-4.16016 -1.52051 -8.7998 -0.200195 -11.5596 3.23926
l-50.8799 61.1201l-0.320312 0.320312c-9.43945 9.7998 -24.4395 9.7998 -34.8799 -0.639648l-0.320312 -0.320312c-10.1201 -9.40039 -10.2393 -24.6396 0.320312 -35.2002c0.240234 -0.320312 0.44043 -0.639648 0.639648 -0.959961l118.721 -152.64
c0.119141 -0.120117 0.199219 -0.200195 0.319336 -0.320312c13.4404 -17.9199 33.7207 -27.5195 56.3203 -27.5195h82.8799c39.4805 0 71.6797 32.1992 71.6797 71.6797v296.96c0 6.67969 -0.679688 15.5996 -3.51953 21.4395
c-2.83984 5.84082 -5.7998 9.28027 -16.96 9.28027s-14.1201 -3.43945 -16.96 -9.28027c-2.83984 -5.83984 -3.52051 -14.7598 -3.52051 -21.4395v-122.88h-20.4795v174.08c0 13.1201 -2.40039 21 -5.44043 24.96s-6.83984 5.75977 -15.04 5.75977
c-9.39941 0 -13.5195 -2.59961 -16.3193 -6.08008c-2.80078 -3.47949 -4.16016 -8.91992 -4.16016 -14.4004v-163.84h-20.4805v184.32c0 8.95996 -6.75977 20.4795 -20.4795 20.4795z" />
    <glyph glyph-name="search" unicode="&#xf116;" 
d="M215.04 417.28c96.04 0 174.08 -78.04 174.08 -174.08c0 -43.2402 -15.7598 -82.7998 -41.9199 -113.28l133.12 -133.439l-28.8008 -28.8008l-134.72 134.4c-28.6396 -20.7197 -63.7598 -32.96 -101.76 -32.96c-96.04 0 -174.08 78.04 -174.08 174.08
s78.04 174.08 174.08 174.08zM215.04 396.8c-84.96 0 -153.6 -68.6396 -153.6 -153.6s68.6396 -153.601 153.6 -153.601s153.6 68.6406 153.6 153.601s-68.6396 153.6 -153.6 153.6z" />
    <glyph glyph-name="ok" unicode="&#xf141;" 
d="M256 417.28c124.211 0 225.28 -101.069 225.28 -225.28s-101.069 -225.28 -225.28 -225.28s-225.28 101.069 -225.28 225.28s101.069 225.28 225.28 225.28zM366.899 278.426c3.17383 4.70996 1.94531 11.0586 -2.76465 14.2334
c-4.6084 3.1748 -11.0596 1.94531 -14.2344 -2.76465l-104.447 -153.907l-74.6504 69.2227c-4.0957 3.78809 -10.6494 3.58398 -14.4375 -0.512695c-3.8916 -4.19824 -3.58398 -10.6494 0.511719 -14.54l92.1602 -85.5049z" />
    <glyph glyph-name="audio-file" unicode="&#xf123;" 
d="M71.6797 427.52h229.521l139.12 -139.119v-331.92h-368.641v471.039zM92.1602 407.04v-430.08h327.68v296.96h-133.12v133.12h-194.56zM307.2 392.56v-98.1592h98.1602zM256 238.92h9.67969c35.7607 0 29.96 -15.96 58.96 -18.7598
c4.84082 0 8.76074 -4.67969 8.76074 -9.40039v-28.1602c0 -5.63965 -4.88086 -9.35938 -10.6807 -8.43945c-26.0801 2.7998 -22.2393 15.96 -57.04 15.96v-88.2402c0 -14.0801 -7.71973 -41.2803 -44.4795 -41.2803c-39.6406 0 -42.5605 18.7607 -42.5605 30.96
c0 18.7607 12.5605 25.3604 42.5605 25.3604c21.2803 0 25.1602 9.36035 25.1602 20.6396v92c0 5.60059 3.87988 9.36035 9.63965 9.36035z" />
    <glyph glyph-name="filter" unicode="&#xf137;" 
d="M39.04 427.52h0.959961h0.959961h430.08c5.63965 0 10.2402 -4.59961 10.2402 -10.2393v-29.1201c0.0400391 -0.520508 0.0400391 -1.08008 0 -1.60059v-0.639648c-0.0400391 -1.43945 -0.360352 -2.83984 -0.959961 -4.16016
c-0.200195 -0.240234 -0.400391 -0.439453 -0.640625 -0.639648c-0.359375 -0.560547 -0.799805 -1.12012 -1.2793 -1.60059l-1.28027 -1.2793l-0.320312 -0.320312l-159.359 -169.28v-241.92c-0.0800781 -3.59961 -2.08008 -6.91992 -5.2002 -8.67969
c-3.16016 -1.7998 -7.04004 -1.75977 -10.1602 0.0400391l-102.4 61.4395c-3.08008 1.80078 -5.04004 5.08008 -5.12012 8.64062v180.479l-160.96 170.88c-1.83984 1.88086 -2.83984 4.40039 -2.87988 7.04004v30.7207c-0.0800781 5 3.44043 9.31934 8.32031 10.2393z
M51.2002 407.04v-16.6396l158.08 -167.681h93.4395l158.08 167.681v16.6396h-409.6zM215.04 202.24v-168.641l81.9199 -48.96v217.601h-81.9199z" />
    <glyph glyph-name="female-user" unicode="&#xf121;" 
d="M243.2 427.52c48.6396 0 80.7598 -30.6396 93.1201 -43.1992c41.5195 -1.36035 71.5596 -21.4805 89.2793 -49.2803c18.3203 -28.7998 24.96 -64.6396 24.96 -97.5996c0 -32.6807 -7.23926 -62.7207 -7.67969 -92.1602
c-0.439453 -29.4404 4.91992 -58.2803 31.04 -91.8398c1.7998 -2.28027 2.56055 -5.24023 2.08008 -8.08008c-0.480469 -2.87988 -2.16016 -5.40039 -4.63965 -6.95996c0 0 -12.1201 -7.48047 -35.5205 -15.6807c-22.7598 -7.95996 -57.2402 -16.6396 -103.359 -21.7598
c-23.1602 -27.7598 -49.6807 -44.4795 -76.4805 -44.4795c-26.7197 0 -53.04 16.5596 -76.1602 44.1592h-0.320312c-45.8799 5.08008 -79.6797 14.04 -101.76 22.0801c-22.7598 8.28027 -34.2402 16 -34.2402 16c-2.2793 1.56055 -3.83984 3.95996 -4.31934 6.68066
c-0.480469 2.67969 0.160156 5.47949 1.75977 7.71973c25.6396 34.8398 30.5205 66.8799 29.4404 98.5596c-1.08008 31.6807 -8.95996 62.6006 -8.95996 93.7607c0 56.6396 17.8398 102.64 49.9199 134.079c32.0801 31.4404 77.7598 48 131.84 48zM243.2 407.04
c-49.96 0 -90.0801 -14.7598 -117.76 -41.9199c-27.6807 -27.1602 -43.5205 -67.2402 -43.5205 -119.68c0 -27.4805 7.7998 -58.6406 8.95996 -93.1201c1.08008 -31.3604 -4.83984 -65.7207 -27.2002 -100.801c3.87988 -2.23926 6.28027 -4.19922 21.1201 -9.59961
c16.8799 -6.16016 41.7598 -12.9199 74.5605 -17.9199c-15.96 22 -36.4805 59.2002 -36.4805 106.56c0 39 21.7598 62.2402 47.04 74.5605s54.5205 16.3604 72.96 22.0801c57.6396 17.8799 69.7598 63.6797 69.7598 63.6797l0.320312 0.320312v0.639648l0.320312 0.320312
v0.639648c0.120117 0.120117 0.200195 0.200195 0.319336 0.320312c0.0800781 0.200195 0.200195 0.439453 0.320312 0.639648l0.320312 0.320312v0.320312c0.200195 0.119141 0.439453 0.239258 0.639648 0.319336c0.0800781 0.200195 0.200195 0.44043 0.320312 0.640625
c0.399414 0.359375 0.839844 0.679688 1.28027 0.959961c0.519531 0.359375 1.03906 0.679688 1.59961 0.959961c0.719727 0.399414 1.43945 0.719727 2.24023 0.959961h0.639648c1.08008 0.160156 2.12012 0.160156 3.2002 0h0.320312
c2.75977 -0.520508 5.19922 -2.12012 6.71973 -4.48047c0.160156 -0.120117 0.479492 -0.479492 0.639648 -0.639648c12.3203 -11 57.2803 -56.3203 57.2803 -134.72c0 -59.7607 -24.8398 -109.2 -40.6396 -135.04c35.5195 5.12012 62.2793 12.4395 80.6396 18.8799
c15.2002 5.31934 17.5195 7 21.7598 9.2793c-22.3604 33.1201 -28.9199 64.7607 -28.4795 94.0801c0.519531 32.4805 7.67969 62.3604 7.67969 91.8408c0 30.0791 -6.44043 62.6396 -21.7598 86.7197c-15.3203 24.0801 -38.5605 40.3203 -76.1602 40.3203
c-2.7998 0.0390625 -5.44043 1.15918 -7.36035 3.19922c-10.0801 10.4004 -39.9199 39.3604 -81.5996 39.3604zM326.08 270.72c-9.59961 -18.2002 -31.7598 -48.8799 -77.4404 -63.04c-21.2793 -6.59961 -48.6396 -10.5195 -69.7598 -20.7998
s-35.5195 -24.3203 -35.5195 -56.3203c0 -63.9199 41.5596 -106.64 46.7197 -111.68c0.320312 -0.200195 0.639648 -0.399414 0.959961 -0.639648c0.120117 -0.120117 0.959961 -1.28027 0.959961 -1.28027l0.320312 -0.320312
c0.239258 -0.199219 0.439453 -0.399414 0.639648 -0.639648c0.160156 -0.200195 0.160156 -0.44043 0.320312 -0.639648c0.359375 -0.400391 0.679688 -0.84082 0.959961 -1.28027c20.7998 -25.2803 43 -37.1201 61.7598 -37.1201c19.2402 0 41.7998 12.2002 63.04 38.7197
c0.200195 0.320312 0.400391 0.640625 0.639648 0.959961c0.200195 0.320312 0.400391 0.640625 0.640625 0.959961c2.04004 2.64062 48.3193 63.4004 48.3193 140.801c0 59.4395 -27.4795 96.3994 -42.5596 112.319zM199.68 161.28
c8.48047 0 15.3604 -6.87988 15.3604 -15.3604c0 -8.47949 -6.87988 -15.3604 -15.3604 -15.3604c-8.47949 0 -15.3594 6.88086 -15.3594 15.3604c0 8.48047 6.87988 15.3604 15.3594 15.3604zM312.32 161.28c8.47949 0 15.3594 -6.87988 15.3594 -15.3604
c0 -8.47949 -6.87988 -15.3604 -15.3594 -15.3604c-8.48047 0 -15.3604 6.88086 -15.3604 15.3604c0 8.48047 6.87988 15.3604 15.3604 15.3604z" />
    <glyph glyph-name="pdf" unicode="&#xf127;" 
d="M71.6797 427.52h227.16l141.48 -137.319v-333.72h-368.641v471.039zM92.1602 407.04v-430.08h327.68v296.96h-133.12v133.12h-194.56zM307.2 390.88v-96.4795h99.3994zM243.4 244.48c4.59961 0 9.51953 -1.68066 13 -4.7207
c3.47949 -3.04004 5.47949 -7 6.67969 -10.9199c2.36035 -7.83984 2.08008 -16.3994 0.759766 -26.2002c-0.959961 -7.08008 -5.2002 -16.4795 -7.35938 -24.5596c0.519531 -0.919922 0.439453 -1.56055 0.959961 -2.48047
c8.87988 -15.1191 20.8398 -30.3193 33.5996 -41.3193c0.839844 -0.720703 1.63965 -1 2.47949 -1.64062c6.28027 1.16016 13.8408 4.16016 19.4805 4.76074c10.6797 1.08008 19.96 1.23926 28.1201 -0.959961c4.12012 -1.12012 8.12012 -2.88086 11.5195 -6.2002
c3.36035 -3.32031 5.48047 -8.48047 5.48047 -13.3203c0 -5.95996 -3.60059 -13.7598 -9.60059 -17c-5.95996 -3.24023 -12.0791 -3.59961 -20 -3.59961c-14 0 -26.7998 6.31934 -38.8398 14.4395c-14.3994 -3.12012 -28.1201 -5.35938 -43.5195 -10.6797
c-11.4004 -3.91992 -18.5205 -8.52051 -28.5605 -12.96c-3.11914 -5 -5.63965 -11.9199 -8.7998 -16.2002c-6.28027 -8.43945 -12.5195 -15.3604 -19.5195 -20.0801s-16.6807 -7.47949 -25.0801 -3.04004c-3.95996 2.04004 -7.7998 5.2002 -9.64062 10.04
c-1.83984 4.83984 -0.879883 10.2002 0.959961 13.96c3.76074 7.56055 10.1602 12.3203 18.2402 17.6406c7.2002 4.71973 19.5205 8.7998 29.2803 13.3594c7.47949 12.6807 15.2803 24.7598 21.6396 40c5 11.96 6.60059 21.7197 9.91992 32.9199
c-6.67969 13.1602 -11.8398 26 -13.1992 37.3604c-0.880859 7.2002 -0.640625 14.1201 2.87988 20.5596c3.47949 6.48047 11.4395 10.8408 19.1201 10.8408zM242.56 224.08c-0.119141 0 -0.239258 -0.0400391 -0.319336 -0.240234
c-0.320312 -0.519531 -1.08008 -3.55957 -0.480469 -8.32031c0.120117 -1.0791 1.52051 -3.31934 1.75977 -4.51953c0.200195 4.71973 0.520508 10.04 -0.0390625 11.9199c-0.320312 1 -0.400391 0.959961 -0.44043 1.04004
c-0.160156 0.0400391 -0.360352 0.120117 -0.480469 0.120117zM248.76 152.24c-2.2002 -6.08008 -2.63965 -11.2402 -5.2002 -17.3604c-2.7998 -6.71973 -6.67969 -11.5596 -9.7998 -18.0801c2.2002 0.799805 3.48047 1.87988 5.7207 2.64062
c10.5596 3.63965 19.96 4.63965 30.4395 7.43945c-7.83984 7.7998 -14.8398 16.2803 -21.1602 25.3604z" />
    <glyph glyph-name="load" unicode="&#xf147;" 
d="M256.5 380c15.4375 0 28 -12.5625 28 -28s-12.5625 -28 -28 -28s-28 12.5625 -28 28s12.5625 28 28 28zM369.5 336.5c17.6875 0 32 -14.3125 32 -32s-14.3125 -32 -32 -32s-32 14.3125 -32 32s14.3125 32 32 32zM143.5 329.5c13.25 0 24 -10.75 24 -24
s-10.75 -24 -24 -24s-24 10.75 -24 24s10.75 24 24 24zM416 227.5c19.875 0 36 -16.125 36 -36s-16.125 -36 -36 -36s-36 16.125 -36 36s16.125 36 36 36zM96 212.5c11.0625 0 20 -8.9375 20 -20s-8.9375 -20 -20 -20s-20 8.9375 -20 20s8.9375 20 20 20zM368.5 118.5
c22.0625 0 40 -17.9375 40 -40s-17.9375 -40 -40 -40s-40 17.9375 -40 40s17.9375 40 40 40zM142.5 95.5c8.8125 0 16 -7.1875 16 -16s-7.1875 -16 -16 -16s-16 7.1875 -16 16s7.1875 16 16 16zM255.5 80c26.5 0 48 -21.5 48 -48s-21.5 -48 -48 -48s-48 21.5 -48 48
s21.5 48 48 48z" />
    <glyph glyph-name="insecticide" unicode="&#xf16d;" 
d="M419.84 448c11.3203 0 20.4805 -9.16016 20.4805 -20.4805c0 -11.3193 -9.16016 -20.4795 -20.4805 -20.4795s-20.4795 9.16016 -20.4795 20.4795c0 11.3203 9.15918 20.4805 20.4795 20.4805zM151.68 437.76h0.959961h0.959961h81.9199
c5.64062 0 10.2402 -4.59961 10.2402 -10.2402v-112.64v-0.959961c42.2002 -19.4795 71.6807 -62.2803 71.6807 -111.68v-237.12c0 -15.8799 -13.2402 -29.1201 -29.1201 -29.1201h-187.521c-15.8398 0 -29.1201 13.2402 -29.1201 29.1201v237.12
c0 49.3994 29.4805 92.2002 71.6807 111.68v0.959961v112.64c-0.0800781 5 3.43945 9.32031 8.31934 10.2402zM163.84 417.28v-96.3203c9.87988 2.55957 20.0801 4.16016 30.7197 4.16016c10.6406 0 20.8408 -1.60059 30.7207 -4.16016v27.5205
c-6.12012 3.55957 -10.2402 10.0391 -10.2402 17.5996c0 7.55957 4.12012 14.04 10.2402 17.5996v33.6006h-61.4404zM358.4 417.28c11.3193 0 20.4795 -9.16016 20.4795 -20.4805c0 -11.3193 -9.16016 -20.4795 -20.4795 -20.4795
c-11.3203 0 -20.4805 9.16016 -20.4805 20.4795c0 11.3203 9.16016 20.4805 20.4805 20.4805zM296.96 386.56c11.3203 0 20.4805 -9.15918 20.4805 -20.4795s-9.16016 -20.4805 -20.4805 -20.4805s-20.4795 9.16016 -20.4795 20.4805s9.15918 20.4795 20.4795 20.4795z
M419.84 386.56c11.3203 0 20.4805 -9.15918 20.4805 -20.4795s-9.16016 -20.4805 -20.4805 -20.4805s-20.4795 9.16016 -20.4795 20.4805s9.15918 20.4795 20.4795 20.4795zM358.4 345.6c11.3193 0 20.4795 -9.15918 20.4795 -20.4795s-9.16016 -20.4805 -20.4795 -20.4805
c-11.3203 0 -20.4805 9.16016 -20.4805 20.4805s9.16016 20.4795 20.4805 20.4795zM419.84 314.88c11.3203 0 20.4805 -9.16016 20.4805 -20.4795c0 -11.3203 -9.16016 -20.4805 -20.4805 -20.4805s-20.4795 9.16016 -20.4795 20.4805
c0 11.3193 9.15918 20.4795 20.4795 20.4795zM194.56 304.64c-56.7197 0 -102.399 -45.6797 -102.399 -102.399v-237.12c0 -4.87988 3.75977 -8.63965 8.63965 -8.63965h187.521c4.87988 0 8.63965 3.75977 8.63965 8.63965v237.12
c0 56.7197 -45.6797 102.399 -102.4 102.399zM194.56 192c45.1201 0 81.9209 -36.7998 81.9209 -81.9199s-36.8008 -81.9199 -81.9209 -81.9199c-21.3193 0 -40.7598 8.32031 -55.3594 21.7598c-0.320312 0.200195 -0.640625 0.400391 -0.959961 0.639648
c-0.600586 0.480469 -1.12012 1 -1.60059 1.60059c-0.479492 0.399414 -0.879883 0.799805 -1.2793 1.28027c-0.120117 0.199219 -0.240234 0.439453 -0.320312 0.639648l-0.320312 0.320312c-13.5996 14.6396 -22.0801 34.1992 -22.0801 55.6797
c0 45.1201 36.8008 81.9199 81.9199 81.9199zM194.56 171.52c-34.04 0 -61.4395 -27.3994 -61.4395 -61.4395c0 -13.2803 4.43945 -25.4805 11.5195 -35.5205l85.4404 85.4404c-10.04 7.08008 -22.2402 11.5195 -35.5205 11.5195zM244.48 145.6l-85.4404 -85.4395
c10.04 -7.08008 22.2402 -11.5205 35.5195 -11.5205c34.04 0 61.4404 27.4004 61.4404 61.4404c0 13.2803 -4.44043 25.4795 -11.5195 35.5195z" />
    <glyph glyph-name="do-not-bleach" unicode="&#xf174;" 
d="M255.68 407.04l0.327148 0.00488281c3.34277 0 7.3623 -2.37598 8.97363 -5.30469l91.4395 -166.28l130.36 68.0205c1.19434 0.642578 3.26367 1.18848 4.62012 1.21973l0.244141 0.00292969c5.65234 0 10.2412 -4.58789 10.2412 -10.2412
c0 -3.47852 -2.52051 -7.57422 -5.62598 -9.1416l-129.96 -67.8008l70.96 -129.02l59 -30.7803c3.03809 -1.58496 5.50293 -5.65332 5.50293 -9.08008c0 -5.65332 -4.58887 -10.2422 -10.2432 -10.2422c-1.38672 0 -3.50977 0.520508 -4.73926 1.16211l-31.7002 16.54
l35.1797 -63.96c0.701172 -1.27246 1.26953 -3.48535 1.26953 -4.93848c0 -5.65332 -4.58789 -10.2412 -10.2402 -10.2412h-0.00878906h-450.561h-0.00878906c-5.65234 0 -10.2402 4.58789 -10.2402 10.2412c0 1.45312 0.568359 3.66602 1.26953 4.93848l35.1797 63.96
l-31.7002 -16.54c-1.22949 -0.641602 -3.35254 -1.16211 -4.73926 -1.16211c-5.6543 0 -10.2432 4.58887 -10.2432 10.2422c0 3.42676 2.46484 7.49512 5.50293 9.08008l59 30.7803l70.96 129.02l-129.96 67.8008c-3.10254 1.56836 -5.62012 5.66309 -5.62012 9.13867
c0 5.61914 4.56055 10.207 10.1797 10.2412h0.0722656c1.42285 0 3.59473 -0.546875 4.84766 -1.21973l130.36 -68l91.4395 166.26c1.55566 2.82715 5.43555 5.20117 8.66016 5.2998zM256 375.54l-82.2598 -149.56l82.2598 -42.9004l82.2598 42.9004zM163.86 208.04
l-56.3408 -102.44l126.341 65.9199zM348.14 208.04l-70 -36.5205l126.32 -65.8994zM256 159.96l-166.3 -86.7598l-41.6602 -75.7598h415.92l-41.6797 75.7598z" />
    <glyph glyph-name="sort-up-filled" unicode="&#xf109;" 
d="M256 314.88l215.04 -225.28h-430.08z" />
    <glyph glyph-name="thumbs-up" unicode="&#xf12c;" 
d="M245.76 407.04c8.7207 0 18.3203 -3.48047 26.5605 -11.2002c8.23926 -7.71973 14.3994 -20.04 14.3994 -35.8398c0 -11.3604 -3.95996 -18.5996 -6.71973 -25.9199v-0.320312c-3.12012 -8.71973 -13.1602 -31.4395 -22.7197 -53.1201
c-6.28027 -14.2393 -8.76074 -19.5596 -12.1602 -27.1992c19.0801 0 95.8799 -0.0400391 127.68 -0.959961h0.320312c27.7998 -0.160156 46.7197 -19 46.7197 -39.04c0 -9.36035 -1.67969 -17.1201 -2.55957 -22.4004c8.47949 -4.44043 23.04 -13.8398 23.04 -36.7998
c0 -15.3203 -7.08008 -25.4404 -14.0801 -32.3203c7 -6.24023 14.0801 -15.7998 14.0801 -30.4004c0 -23.1992 -14.6807 -33.3594 -24.6406 -38.7197c2.12012 -5.47949 4.16016 -12.6797 4.16016 -21.4395c0 -10.6006 -5.32031 -21 -14.0801 -29.4404
c-8.75977 -8.43945 -21.5996 -14.7197 -37.1201 -14.7197h-194.56c-50.6396 0 -92.1602 41.5195 -92.1602 92.1602v96.3193c0 19.4004 5.83984 38.04 17.2803 54.0801l114.24 156.8c0.239258 0.400391 0.679688 0.560547 0.959961 0.959961
c7.71973 12.0801 19.3193 19.5205 31.3594 19.5205zM245.76 386.56c-3.91992 0 -10.1201 -2.59961 -14.7197 -10.2393c-0.200195 -0.320312 -0.400391 -0.640625 -0.639648 -0.959961l-114.561 -157.44c-0.0400391 -0.0800781 0.0400391 -0.240234 0 -0.320312
c-8.91992 -12.5996 -13.4395 -26.5996 -13.4395 -41.9199v-96.3193c0 -39.4805 32.1992 -71.6807 71.6797 -71.6807h194.56c10.0801 0 17.7207 3.83984 23.04 8.95996c5.32031 5.12012 7.68066 12 7.68066 14.7207c0 12.1592 -5.44043 19.5195 -5.44043 19.5195
c-1.91992 2.60059 -2.47949 5.95996 -1.51953 9.04004c0.919922 3.08008 3.2793 5.56055 6.31934 6.63965c0 0 21.1201 8.08008 21.1201 24.96c0 15 -14.0801 20.1602 -14.0801 20.1602c-3.71973 1.48047 -6.2002 5 -6.39941 8.95996
c-0.200195 4 1.91992 7.7207 5.43945 9.60059c0 0 15.04 9 15.04 24c0 16.7197 -16.6396 22.0801 -16.6396 22.0801c-4.64062 1.63965 -7.48047 6.31934 -6.71973 11.1992c0 0 2.87988 17.7207 2.87988 25.9209c0 6.47949 -7.48047 18.5596 -26.5605 18.5596h-0.319336
c-34.2002 1 -143.04 0.959961 -143.04 0.959961c-3.44043 0.0400391 -6.64062 1.7998 -8.52051 4.67969c-1.87988 2.91992 -2.16016 6.56055 -0.759766 9.7207c0 0 8.95996 19.8799 18.5596 41.5996c9.60059 21.7197 20.04 46.1201 22.0801 51.8398v0.320312
c3.36035 9 5.44043 11.9199 5.44043 18.8799c0 10.7998 -3.68066 16.7598 -8 20.7998c-4.32031 4.04004 -9.95996 5.75977 -12.4805 5.75977z" />
    <glyph glyph-name="eye" unicode="&#xf113;" 
d="M256 325.12c136.52 0 243.2 -126.4 243.2 -126.4c3.35938 -3.83984 3.35938 -9.59961 0 -13.4395c0 0 -106.681 -126.4 -243.2 -126.4s-243.2 126.4 -243.2 126.4c-3.35938 3.83984 -3.35938 9.59961 0 13.4395c0 0 106.681 126.4 243.2 126.4zM256 304.64
c-27 0 -52.8799 -5.51953 -76.7998 -14.0801c-16 -18.0791 -25.6006 -41.7197 -25.6006 -67.8398c0 -56.6797 45.7207 -102.399 102.4 -102.399s102.4 45.7197 102.4 102.399c0 26.1201 -9.91992 49.7607 -25.9199 67.8398
c-23.8408 8.52051 -49.5605 14.0801 -76.4805 14.0801zM145.28 275.52c-57.96 -29.3994 -99.7607 -72 -110.4 -83.5195c16.6396 -18 108.76 -112.64 221.12 -112.64s204.48 94.6396 221.12 112.64c-10.6396 11.4805 -52.2402 54.1201 -110.08 83.5195
c7.55957 -16 11.8398 -34 11.8398 -52.7998c0 -67.7598 -55.1201 -122.88 -122.88 -122.88s-122.88 55.1201 -122.88 122.88c0 18.8799 4.47949 36.7998 12.1602 52.7998zM256 273.92c28.2803 0 51.2002 -22.9199 51.2002 -51.2002
c0 -28.2793 -22.9199 -51.2002 -51.2002 -51.2002s-51.2002 22.9209 -51.2002 51.2002c0 28.2803 22.9199 51.2002 51.2002 51.2002z" />
    <glyph glyph-name="checkmark" unicode="&#xf12f;" 
d="M482 373.333l30 -30.666l-340 -342.667l-172 170.667l30 30.666l142 -141.333z" />
    <glyph glyph-name="attach" unicode="&#xf13d;" 
d="M399.36 386.56c18.3193 0 36.96 -6.87988 50.8799 -20.7998c27.8398 -27.8398 27.8398 -73.5996 0 -101.439l-252.48 -252.16c-35.7998 -35.7998 -94.0801 -35.7998 -129.92 0s-35.7998 94.4395 0 130.24l201.601 201.6c2.47949 3.04004 6.43945 4.44043 10.2793 3.55957
c3.7998 -0.879883 6.7998 -3.87988 7.68066 -7.67969c0.879883 -3.83984 -0.520508 -7.7998 -3.56055 -10.2803l-201.6 -201.6c-28 -28 -28 -73.1201 0 -101.12s73.1201 -28 101.12 0l252.159 252.16c20 20 20 52 0 72c-20.0391 20.04 -52 20 -72 0l-203.84 -203.521
v-0.319336l-0.959961 -0.640625c-0.200195 -0.239258 -0.399414 -0.439453 -0.639648 -0.639648c-0.280273 -0.439453 -0.599609 -0.879883 -0.959961 -1.28027c-10.8799 -12.0801 -10.6797 -30.2793 0.959961 -41.9199c12.04 -12.04 31.4795 -12.04 43.5195 0
l154.561 154.561c1.83984 1.95996 4.35938 3.08008 7.04004 3.2002c4.2002 0.0791016 8.08008 -2.40039 9.67969 -6.28027c1.63965 -3.87988 0.719727 -8.40039 -2.32031 -11.3203l-154.56 -154.88c-19.8799 -19.8799 -52.4404 -19.8799 -72.3203 0
c-19.1602 19.1602 -19.7197 50.0801 -1.91992 70.0801v0.320312c0.400391 0.479492 0.799805 0.879883 1.28027 1.2793c0.200195 0.240234 0.400391 0.44043 0.639648 0.640625c0.560547 0.719727 1.2002 1.35938 1.91992 1.91992l203.2 203.52
c13.9199 13.9199 32.2402 20.7998 50.5605 20.7998z" />
    <glyph glyph-name="iphone" unicode="&#xf152;" 
d="M331.76 417.28c30.7207 0 57.3604 -26.6406 57.3604 -57.3604v-335.84c0 -30.7197 -26.6396 -57.3604 -57.3604 -57.3604h-147.439c-25.6006 0 -61.4404 23.5605 -61.4404 61.4404v327.68c0 31.7598 28.6797 61.4404 59.4004 61.4404h149.479zM256 -7.67969
c8.2002 0 15.3604 7.16016 15.3604 15.3594c0 8.2002 -7.16016 15.3604 -15.3604 15.3604s-15.3604 -7.16016 -15.3604 -15.3604c0 -8.19922 7.16016 -15.3594 15.3604 -15.3594zM337.92 38.4004v317.439h-163.84v-317.439h163.84z" />
    <glyph glyph-name="strike" unicode="&#xf173;" 
d="M237.12 448c4.95996 0.719727 9.67969 -2.28027 11.2002 -7.04004l19.1992 -58.5596c1.08008 3.87988 4.36035 6.75977 8.32031 7.35938h0.959961c1.32031 0.0400391 2.60059 -0.200195 3.83984 -0.639648l212.16 -70.7197
c2.60059 -0.880859 4.75977 -2.76074 5.95996 -5.2002c1.2002 -2.48047 1.36035 -5.32031 0.44043 -7.91992l-36.7998 -107.521c-0.880859 -2.59961 -2.76074 -4.75977 -5.2002 -5.95996c-2.48047 -1.2002 -5.32031 -1.35938 -7.91992 -0.439453l-215.04 71.6797
c-2.60059 0.879883 -4.75977 2.75977 -5.95996 5.2002c-1.2002 2.47949 -1.36035 5.31934 -0.44043 7.91992l9.91992 30.0801l-28.4795 -9.28027h-0.320312l-146.24 -50.2402c-2.59961 -0.919922 -5.43945 -0.759766 -7.91992 0.44043
c-2.43945 1.2002 -4.31934 3.35938 -5.2002 5.95996l-36.7998 108.8c-1.67969 5.28027 1.16016 10.96 6.40039 12.7998l216 72.6406c0.599609 0.279297 1.28027 0.479492 1.91992 0.639648zM232 424.96l-196.48 -66.5596l30.4004 -88.6406l136.64 46.7207l44.8008 14.3994
c2.04004 1.7998 4.67969 2.71973 7.35938 2.56055l6.7207 2.23926zM284.48 366.08l-5.12012 -19.5205l4.7998 -14.0791c0.919922 -2.60059 0.759766 -5.44043 -0.44043 -7.9209c-1.2002 -2.43945 -3.35938 -4.31934 -5.95996 -5.19922l-16 -5.12012l-11.2002 -34.8799
l195.521 -65.2803l30.0801 88zM184.64 280.64l14.4004 -37.4395c0.839844 -0.120117 1.71973 -0.160156 2.55957 -0.320312c15.9199 -3.2002 25.4805 -19.1602 22.4004 -34.5596l-17.2803 -81.9199c-1.67969 -8.48047 -6.47949 -16.3203 -14.0801 -22.4004l-39.04 -30.7197
v-127.04c0.0400391 -3.68066 -1.87988 -7.12012 -5.08008 -9c-3.19922 -1.83984 -7.11914 -1.83984 -10.3193 0c-3.2002 1.87988 -5.12012 5.31934 -5.08008 9v132.16c0 3.11914 1.39941 6.04004 3.83984 8l42.8799 33.5996l0.320312 0.320312
c2.59961 2.31934 6.04004 8.51953 6.39941 10.2393l17.2803 81.9209c1 5.0791 -1.51953 9.63965 -6.08008 10.5596c-5.08008 1 -9.63965 -1.83984 -10.5596 -6.40039l-15.3604 -73.9199c-0.719727 -3.12012 -2.83984 -5.71973 -5.75977 -7.04004l-48.96 -23.6797
c-1.40039 -0.639648 -2.91992 -1 -4.48047 -0.959961h-63.6797c-6.08008 -0.480469 -13.6396 -1.83984 -18.8799 -5.44043c-5.24023 -3.59961 -9.59961 -8.63965 -9.59961 -23.04v-136.319c0.0390625 -3.68066 -1.88086 -7.12012 -5.08008 -9
c-3.2002 -1.83984 -7.12012 -1.83984 -10.3203 0c-3.2002 1.87988 -5.12012 5.31934 -5.08008 9v136.319c0 19.3604 7.87988 32.8809 18.2402 40c10.3594 7.12012 21.9199 8.40039 29.1201 8.95996h0.639648h19.5195c-26.5596 4.48047 -47.0391 27.5605 -47.0391 55.3604
c0 31 25.3193 56.3203 56.3193 56.3203s56.3203 -25.3203 56.3203 -56.3203c0 -27.7998 -20.4805 -50.8799 -47.04 -55.3604h24l42.5596 20.4805l14.4004 68.4805c0.0400391 0.15918 0.280273 0.15918 0.320312 0.319336c1.59961 7.32031 5.87988 13.2803 11.5195 17.2803
l-13.4395 35.2002zM76.7998 222.72c-19.9199 0 -35.8398 -15.9199 -35.8398 -35.8398s15.9199 -35.8398 35.8398 -35.8398s35.8398 15.9199 35.8398 35.8398s-15.9199 35.8398 -35.8398 35.8398zM327.36 219.2l19.1992 -7.36035l-13.4395 -35.5195
c5.55957 -3.95996 9.95996 -9.7207 11.5195 -16.96h0.320312v-0.320312l14.4004 -68.4805l42.5596 -20.4795h24c-26.5596 4.47949 -47.04 27.5596 -47.04 55.3604c0 31 25.3203 56.3193 56.3203 56.3193s56.3193 -25.3193 56.3193 -56.3193
c0 -27.8008 -20.4795 -50.8809 -47.0391 -55.3604h19.5195c7.71973 0 18.96 -0.959961 29.4404 -8c10.4795 -7.04004 18.5596 -20.6396 18.5596 -40v-75.8398c0.0400391 -3.68066 -1.87988 -7.12012 -5.08008 -9c-3.2002 -1.83984 -7.12012 -1.83984 -10.3203 0
c-3.19922 1.87988 -5.11914 5.31934 -5.08008 9v75.8398c0 14.4004 -4.15918 19.5996 -9.2793 23.04c-5.12012 3.43945 -12.6406 4.47949 -18.2402 4.47949h-64.6396c-1.56055 -0.0400391 -3.08008 0.320312 -4.48047 0.959961l-48.96 23.6807
c-2.91992 1.31934 -5.04004 3.91992 -5.75977 7.04004l-15.3604 73.9199c-0.919922 4.55957 -5.47949 7.39941 -10.5596 6.39941c-4.56055 -0.919922 -7.08008 -5.47949 -6.08008 -10.5596l17.2803 -81.9199c0.359375 -1.71973 3.7998 -7.91992 6.39941 -10.2402
l0.320312 -0.320312l42.8799 -33.5996c2.44043 -1.95996 3.83984 -4.87988 3.83984 -8v-70.7197c0.0400391 -3.68066 -1.87988 -7.12012 -5.08008 -9c-3.2002 -1.83984 -7.12012 -1.83984 -10.3193 0c-3.2002 1.87988 -5.12012 5.31934 -5.08008 9v65.5996l-39.04 30.7197
c-7.60059 6.08008 -12.4004 13.9209 -14.0801 22.4004l-17.2803 81.9199c-3.08008 15.4004 6.48047 31.3604 22.4004 34.5605c0.839844 0.15918 1.71973 0.239258 2.55957 0.319336zM435.2 161.28c-19.9199 0 -35.8398 -15.9199 -35.8398 -35.8398
c0 -19.9209 15.9199 -35.8408 35.8398 -35.8408s35.8398 15.9199 35.8398 35.8408c0 19.9199 -15.9199 35.8398 -35.8398 35.8398z" />
    <glyph glyph-name="notebook-paper" unicode="&#xf176;" 
d="M122.26 407.04h287.96c16.4092 0 30.1006 -13.335 30.1006 -29.7402v-370.6c0 -16.4053 -13.6963 -29.7402 -30.1006 -29.7402h-287.96c-16.4043 0 -30.0996 13.335 -30.0996 29.7402v41.9395h20.4795v-41.9395c0 -5.13965 4.09082 -9.25977 9.62012 -9.25977h287.96
c5.53027 0 9.62012 4.12012 9.62012 9.25977v370.6c0 5.13965 -4.07422 9.25977 -9.62012 9.25977h-287.96c-5.5293 0 -9.62012 -4.12012 -9.62012 -9.25977v-52.1797h10.2402l0.144531 0.000976562c5.65332 0 10.2412 -4.58789 10.2412 -10.2412
s-4.58789 -10.2412 -10.2412 -10.2412l-0.144531 0.000976562h-40.96l-0.144531 -0.000976562c-5.65332 0 -10.2412 4.58789 -10.2412 10.2412s4.58789 10.2412 10.2412 10.2412l0.144531 -0.000976562h10.2402v52.1797c0 16.4053 13.6953 29.7402 30.0996 29.7402z
M194.56 325.12h184.32v-122.88h-184.32v112.64v10.2402zM215.04 304.64v-81.9199h143.36v81.9199h-143.36zM92.1602 294.4h20.4795v-30.7207h10.2402l0.144531 0.000976562c5.65332 0 10.2412 -4.58789 10.2412 -10.2402c0 -5.65332 -4.58789 -10.2412 -10.2412 -10.2412
l-0.144531 0.000976562h-40.96l-0.144531 -0.000976562c-5.65332 0 -10.2412 4.58789 -10.2412 10.2412c0 5.65234 4.58789 10.2402 10.2412 10.2402l0.144531 -0.000976562h10.2402v30.7207zM92.1602 232.96h20.4795v-30.7197h10.2402l0.144531 0.000976562
c5.65332 0 10.2412 -4.58789 10.2412 -10.2412s-4.58789 -10.2412 -10.2412 -10.2412l-0.144531 0.000976562h-40.96l-0.144531 -0.000976562c-5.65332 0 -10.2412 4.58789 -10.2412 10.2412s4.58789 10.2412 10.2412 10.2412l0.144531 -0.000976562h10.2402v30.7197z
M92.1602 171.52h20.4795v-30.7197h10.2402l0.144531 0.000976562c5.65332 0 10.2412 -4.58789 10.2412 -10.2412c0 -5.65234 -4.58789 -10.2402 -10.2412 -10.2402l-0.144531 0.000976562h-40.96l-0.144531 -0.000976562c-5.65332 0 -10.2412 4.58789 -10.2412 10.2402
c0 5.65332 4.58789 10.2412 10.2412 10.2412l0.144531 -0.000976562h10.2402v30.7197zM194.56 171.52h184.32v-20.4795h-184.32v20.4795zM194.56 130.56h184.32v-20.4795h-184.32v20.4795zM92.1602 110.08h20.4795v-30.7197h10.2402l0.144531 0.000976562
c5.65332 0 10.2412 -4.58789 10.2412 -10.2412s-4.58789 -10.2412 -10.2412 -10.2412c-0.0400391 0 -0.104492 0.000976562 -0.144531 0.000976562h-40.96c-0.0400391 0 -0.104492 -0.000976562 -0.144531 -0.000976562c-5.65332 0 -10.2412 4.58789 -10.2412 10.2412
s4.58789 10.2412 10.2412 10.2412l0.144531 -0.000976562h10.2402v30.7197zM194.56 89.5996h184.32v-20.4795h-184.32v20.4795z" />
    <glyph glyph-name="today" unicode="&#xf10b;" 
d="M122.88 448h20.4805c11.1992 0 20.4795 -9.28027 20.4795 -20.4805v-20.4795h184.32v20.4795c0 11.2002 9.28027 20.4805 20.4795 20.4805h20.4805c11.2002 0 20.4795 -9.28027 20.4795 -20.4805v-20.4795h62.2803c10.96 0 19.6396 -9.32031 19.6396 -20.04v-412.16
c0 -5.87988 -3.39941 -11.5596 -7.51953 -14.4795c-4.12012 -2.87988 -8.59961 -3.87988 -12.96 -3.87988h-430.08c-4.36035 0 -8.83984 1 -12.96 3.87988c-4.12012 2.91992 -7.51953 8.59961 -7.51953 14.4795v412.16c0 11.7998 9.51953 20.04 20.4795 20.04h61.4404
v20.4795c0 11.2002 9.2793 20.4805 20.4795 20.4805zM122.88 427.52v-61.4395h20.4805v61.4395h-20.4805zM368.64 427.52v-61.4395h20.4805v61.4395h-20.4805zM40.96 386.56v-71.6797h430.08v71.6797h-61.4404v-20.4795c0 -11.2002 -9.2793 -20.4805 -20.4795 -20.4805
h-20.4805c-11.1992 0 -20.4795 9.28027 -20.4795 20.4805v20.4795h-184.32v-20.4795c0 -11.2002 -9.28027 -20.4805 -20.4795 -20.4805h-20.4805c-11.2002 0 -20.4795 9.28027 -20.4795 20.4805v20.4795h-61.4404zM40.96 294.4v-317.44h430.08v317.44h-430.08z
M334.88 236.88l17.2002 -11.1201l-5.56055 -8.59961l-96.4395 -149.641l-72.6396 65.6807l-7.56055 6.87988l13.7197 15.1602l7.60059 -6.83984l54.7197 -49.5205l83.4004 129.4z" />
    <glyph glyph-name="down-arrow" unicode="&#xf135;" 
d="M224 416h32v-358.125l104.875 101.625l22.25 -23l-143.125 -138.875l-143.125 138.875l22.25 23l104.875 -101.625v358.125z" />
    <glyph glyph-name="buy" unicode="&#xf10e;" 
d="M316.48 438.08c2.91992 0.280273 5.83984 -0.719727 8 -2.75977c2.11914 -2 3.31934 -4.83984 3.19922 -7.80078v-179.84l33.6006 33.6006c4.08008 4.08008 10.6396 4.08008 14.7197 0s4.08008 -10.6406 0 -14.7207l-51.2002 -51.1992l-7.35938 -7.04004
l-7.36035 7.04004l-51.2002 51.1992c-2.83984 2.64062 -3.95996 6.64062 -2.87988 10.4004c1.08008 3.71973 4.16016 6.52051 8 7.2002c0.400391 0.120117 0.839844 0.240234 1.28027 0.320312c3.12012 0.239258 6.2002 -0.920898 8.31934 -3.2002l33.6006 -33.6006v179.84
c-0.120117 4.88086 3.24023 9.16016 8 10.2402c0.399414 0.120117 0.839844 0.240234 1.28027 0.320312zM17.5996 427.52h0.959961h0.959961h0.960938h68.1592c15.8408 0 28.8408 -3.83984 38.0801 -12.1592c9.24023 -8.32031 14.3203 -19.7607 18.2402 -32.96v-0.640625
l70.0801 -281.92h185.6l71.04 187.84c1.24023 3.56055 4.28027 6.12012 8 6.7207c3.64062 0.639648 7.32031 -0.760742 9.64062 -3.60059c2.31934 -2.83984 2.91992 -6.71973 1.55957 -10.1602l-73.5996 -194.56c-1.44043 -4.04004 -5.32031 -6.71973 -9.60059 -6.71973
h-187.84l7.04004 -27.8408v-0.319336c3.04004 -11.4404 5.63965 -20.04 9.91992 -24.96c4.32031 -4.95996 10.7598 -8.32031 26.5605 -8.32031h156.479c3.36035 0 6.48047 -1.63965 8.40039 -4.40039c1.87988 -2.71973 2.35938 -6.23926 1.2002 -9.35938
c6.59961 -7.28027 10.8799 -16.6797 10.8799 -27.2002c0 -22.5195 -18.4404 -40.96 -40.96 -40.96c-22.5205 0 -40.96 18.4404 -40.96 40.96c0 7.52051 2.19922 14.4004 5.75977 20.4805h-62.7197c3.55957 -6.08008 5.75977 -12.96 5.75977 -20.4805
c0 -22.5195 -18.4404 -40.96 -40.96 -40.96c-22.5205 0 -40.96 18.4404 -40.96 40.96c0 9.95996 3.91992 18.7998 9.91992 25.9199c-5.40039 2.52051 -9.87988 5.83984 -13.4404 9.91992c-8.55957 9.7998 -11.6396 21.8799 -14.7197 33.6006l-81.9199 330.56
c-3.40039 11.3203 -7.32031 18.6797 -12.1602 23.04c-4.91992 4.40039 -11.5596 7.04004 -24.3203 7.04004h-47.6797c0 -11.3203 -9.16016 -20.4805 -20.4795 -20.4805c-11.3203 0 -20.4805 9.16016 -20.4805 20.4805c0 9.63965 6.67969 17.6797 15.6797 19.8398
c0.200195 0.120117 0.44043 0.240234 0.640625 0.320312c0.120117 0.0400391 0.199219 0 0.319336 0c0.320312 0.120117 0.640625 0.240234 0.959961 0.319336zM266.24 -2.55957c-11.4404 0 -20.4805 -9.04004 -20.4805 -20.4805s9.04004 -20.4795 20.4805 -20.4795
c11.4395 0 20.4795 9.03906 20.4795 20.4795s-9.04004 20.4805 -20.4795 20.4805zM399.36 -2.55957c-11.4404 0 -20.4805 -9.04004 -20.4805 -20.4805s9.04004 -20.4795 20.4805 -20.4795c11.4395 0 20.4795 9.03906 20.4795 20.4795s-9.04004 20.4805 -20.4795 20.4805z
" />
    <glyph glyph-name="circled-question-mark" unicode="&#xf155;" 
d="M256 427.52c129.953 0 235.52 -105.566 235.52 -235.52s-105.566 -235.52 -235.52 -235.52s-235.52 105.566 -235.52 235.52s105.566 235.52 235.52 235.52zM256 407.04c-118.885 0 -215.04 -96.1553 -215.04 -215.04s96.1553 -215.04 215.04 -215.04
s215.04 96.1553 215.04 215.04s-96.1553 215.04 -215.04 215.04zM258.96 319.92c39.6494 0 66.46 -26.0781 66.46 -62.4395c0 -17.6338 -6.22754 -30.4756 -18.7197 -47.7402l-24.6006 -33.7998c-7.3418 -9.91309 -9.55957 -15.0576 -9.55957 -27.54v-11.7402
c0 -2.20215 -1.45801 -3.66016 -3.66016 -3.66016h-24.2402c-2.20117 -0.0410156 -3.65918 1.43848 -3.65918 3.63965v15.04c0 14.7051 3.28906 22.4209 11 33.0801l24.6191 33.7803c12.8418 17.623 17.2402 26.0674 17.2402 38.5596
c0 20.9307 -14.6787 34.1602 -35.6201 34.1602c-20.5615 0 -33.7764 -12.4941 -38.1797 -34.8994c-0.369141 -2.20215 -1.82812 -3.30859 -4.04004 -2.94043l-23.1396 4.06055c-2.21191 0.368164 -3.29883 1.82812 -2.94043 4.03906
c5.51953 35.2568 30.8447 58.4004 69.04 58.4004zM242.82 105.04h27.9199c2.20117 0 3.66016 -1.48828 3.66016 -3.67969v-31.5801c0 -2.21191 -1.46875 -3.66016 -3.66016 -3.66016h-27.9199c-2.22266 0 -3.68066 1.45801 -3.68066 3.66016v31.5801
c0 2.20117 1.46875 3.67969 3.68066 3.67969z" />
    <glyph glyph-name="chevron-right" unicode="&#xf14b;" 
d="M224.77 377.385l185.385 -185.385l-185.385 -185.385l-55.6924 55.6924l129.692 129.692l-129.692 129.692z" />
    <glyph glyph-name="hand-rock" unicode="&#xf12a;" 
d="M246.44 366.72c9.63965 0 19.5596 -3.2793 27.4795 -10.1602c2.75977 -2.39941 5.08008 -5.43945 7.12012 -8.71973c6.16016 4.91992 15.1602 7.87988 26.1602 7.87988c14.3193 0 30.7197 -5.12012 37.8799 -27.6396c8.2002 6.16016 16.4004 7.16016 23.5596 7.16016
c15.3604 0 40.96 -6.16016 40.96 -51.2002v-184.32c0 -51.2002 -40.96 -92.1602 -92.1592 -92.1602h-93.1602c-34.8398 0 -66.5605 19.4404 -81.9199 51.2002l-29.7207 56.3203c-1.04004 3.08008 -10.1992 23.3604 -10.1992 46.9199
c0 39.9199 23.8398 63.7998 41.2393 70.96l-0.239258 63.7998c0 0.240234 -0.0400391 0.480469 -0.0400391 0.720703v18.3994c0 12.6396 5.67969 23.2803 13.5996 29.96c7.95996 6.71973 17.7598 10 27.3604 10c9 0 18.1592 -3 25.7998 -9
c2.39941 4.16016 5.39941 7.7998 8.87988 10.6006c8.16016 6.39941 18.04 9.2793 27.4004 9.2793zM245.76 345.48c-14.8799 0 -20.1201 -11.5205 -20.4395 -19.6807v-28.3193c0.0800781 -3.68066 -1.87988 -7.12012 -5.04004 -9
c-3.2002 -1.84082 -7.16016 -1.84082 -10.3604 0c-3.16016 1.87988 -5.12012 5.31934 -5.08008 9v17.3994c0 7.52051 -2.59961 12 -6.43945 15.3203c-3.84082 3.31934 -9.28027 5.16016 -14.04 5.16016c-4.7207 0 -10.2402 -1.84082 -14.1201 -5.12012
c-3.83984 -3.28027 -6.36035 -7.48047 -6.36035 -14.3604v-18.3994c0.0400391 -0.520508 0 -1 -0.0800781 -1.52051l0.0800781 -72.5195c0 -5.12012 -5.16016 -9.04004 -9.28027 -10.04c-1 0 -31.6797 -9.40039 -31.6797 -50.3604
c0 -15.3604 5.08008 -31.5596 8.16016 -37.7197l28.6396 -57.3203c12.3203 -24.5996 36.8799 -39.96 64.5605 -39.96h93.1602c39.9199 0 71.6797 31.7598 71.6797 71.6797v184.32c0 26.6396 -10.2402 30.7197 -20.4805 30.7197
c-10.2393 0 -20.4795 -4.08008 -20.4795 -30.7197c0 -6.16016 -4.08008 -10.2402 -10.2402 -10.2402s-10.2402 4.08008 -10.2402 10.2402v20.4795c0 28.6807 -10.2393 30.7207 -20.4795 30.7207c-17.4004 0 -20.4805 -11.2803 -20.4805 -20.4805v-20.4795
c0 -6.16016 -4.08008 -10.2402 -10.2393 -10.2402c-6.16016 0 -10.2402 4.08008 -10.2402 10.2402v30.7197c0 8.2002 -5.12012 20.4805 -20.4805 20.4805z" />
    </font>
</defs>
</svg>
